<svg id="_лой_1" data-name="‘лой_1" xmlns="http://www.w3.org/2000/svg" xmlns:xlink="http://www.w3.org/1999/xlink" viewBox="0 0 3000 2000"><defs><style>.cls-1{fill:#fff;}.cls-2{fill:#ebf3fa;}.cls-3{fill:#f8fcff;}.cls-4{opacity:0.5;}.cls-5{fill:#c5ddff;}.cls-6{fill:#dfebf9;}.cls-7{fill:#cde0fb;}.cls-8{fill:#afcdfb;}.cls-9{fill:#d9eaff;}.cls-10{fill:#739af0;}.cls-11{fill:#163560;}.cls-12{fill:#ebf2ff;}.cls-13{fill:#2b478b;}.cls-14{fill:#c2cfff;}.cls-15{fill:#aabdf2;}.cls-16{fill:#f78248;}.cls-17{opacity:0.3;}.cls-18{fill:#1f4777;}.cls-19{fill:#c65528;}.cls-20{fill:#f99746;}.cls-21{fill:#ed7d2b;}.cls-22{fill:#ffb27d;}.cls-23{fill:#f1a34f;}.cls-24{fill:#d86713;}.cls-25{fill:#5283db;}.cls-26{fill:#0b2442;}.cls-27{fill:#1c468a;}.cls-28{fill:#233862;}.cls-29{fill:#e8945b;}.cls-30{fill:#3a0aff;}.cls-31{fill:#bdd1f9;}.cls-32{fill:#a8d29f;}.cls-33{fill:#2d4c7f;}.cls-34{fill:#ed975d;}.cls-35{fill:#83b0ff;}.cls-36{fill:url(#linear-gradient);}.cls-37{fill:#2e3552;}</style><linearGradient id="linear-gradient" x1="1480.64" y1="1535.3" x2="1346.01" y2="1374.86" gradientUnits="userSpaceOnUse"><stop offset="0" stop-color="#12ea48"/><stop offset="1" stop-color="#3f20e0"/></linearGradient></defs><rect class="cls-1" width="3000" height="2000"/><path class="cls-2" d="M513.2,1782S261.85,1607.9,443,1237.35c119.8-245,251.68-217.21,230.07-698.68-18.49-412,653.2-447.6,865.49-328.08S1731,421.86,2169.44,375.74c305.11-32.1,459.42,410.83,345.4,613.17C2353.07,1276,2851.37,1481.65,2660,1782Z"/><path class="cls-3" d="M1925.76,573.28s24.37-42.72,82.64-38c0,0,84.6-71.2,174.82-9.49,0,0,95.9-15.29,166.91,13.23,47.36,19,63,39,63,39Z"/><g class="cls-4"><path class="cls-5" d="M1302.68,801.86s-21.59-103.41-80.58-161.11c-7.83-7.67-21-1.2-19.81,9.7l.06.55C1204.67,669.58,1271.48,743,1302.68,801.86Z"/></g><g class="cls-4"><path class="cls-5" d="M1311.8,831.21s-64.75-126-160.93-175.79a12.45,12.45,0,0,0-16.54,4.65c-2.12,3.74-2.73,9.35.75,17.73C1144.34,700.14,1252.74,768.61,1311.8,831.21Z"/></g><g class="cls-4"><path class="cls-5" d="M2091.79,1270.31s40.76-97.47,109.59-143c9.15-6,20.85,2.79,17.63,13.27-.05.17-.11.35-.17.53C2213.05,1159,2133.56,1218.4,2091.79,1270.31Z"/></g><g class="cls-4"><path class="cls-5" d="M2077.28,1297.4s87.41-111.44,191.28-142.17a12.46,12.46,0,0,1,15.36,7.69c1.37,4.08.91,9.7-4.09,17.27C2266.5,1200.38,2147.12,1247.11,2077.28,1297.4Z"/></g><path class="cls-6" d="M2468.23,1300.91c-24.07-68.47-140.36-38-140.36-38s-71,128.15-94.13,132.78,39.36-121.43,39.36-121.43c-45.44-1-156.36,62.73-156.36,62.73s17.78,142.1-5.72,140.9-9.32-126.63-9.32-126.63c-42.71,16.32-79.71,70.26-79.71,70.26-44.84,86.72,68.83,139.81,68.83,139.81s5.1,49.38-21.29,108.4h0s-6.13,11-11.83,29.32l11.91-.88c.73-3.26,1.58-6.43,2.55-9.48a0,0,0,0,1,0,0l0-.14c.68-1.89,1.66-4.6,2.88-7.89v0s0,0,0,0c3.12-7.39,5.19-12.83,6.46-16.74a.06.06,0,0,0,0,0c9.25-23.15,22.81-53.42,32.83-60.3a23.39,23.39,0,0,1-2.95-5.28l2.95,5.28c23.59,42.16,126,41.94,181.92,26.12s30-30-2.49-53.75-96-12.17-115.69-21,7.23-21,45.29-20.89,59.76,36.57,121.32,37.9,99.68-117.1,99.68-117.1c-41.25,16.21-118.65-1.51-122.63-15.85s108.2-21.13,125.34-26.79S2492.29,1369.38,2468.23,1300.91Z"/><path class="cls-6" d="M854.44,740.56C877.6,674.66,989.53,704,989.53,704s68.38,123.35,90.59,127.8S1042.24,715,1042.24,715c43.74-1,150.49,60.37,150.49,60.37s-17.11,136.77,5.51,135.62,9-121.88,9-121.88c41.1,15.71,76.72,67.62,76.72,67.62,43.15,83.46-66.25,134.57-66.25,134.57s-4.9,47.52,20.49,104.33h0s5.9,10.57,11.39,28.22l-11.46-.85c-.71-3.14-1.52-6.18-2.45-9.12a.08.08,0,0,0,0,0,.93.93,0,0,1,0-.13c-.66-1.83-1.6-4.43-2.78-7.6v0h0c-3-7.11-5-12.35-6.22-16.11a.06.06,0,0,0,0,0c-8.9-22.28-22-51.42-31.59-58a22.25,22.25,0,0,0,2.84-5.07c-.91,1.61-1.85,3.3-2.84,5.07-22.71,40.58-121.29,40.37-175.1,25.14s-28.86-28.89,2.4-51.73,92.42-11.71,111.35-20.18-7-20.23-43.59-20.11-57.52,35.2-116.77,36.47-95.94-112.69-95.94-112.69c39.7,15.59,114.2-1.46,118-15.26s-104.14-20.34-120.64-25.78S831.28,806.46,854.44,740.56Z"/><rect class="cls-7" x="1432.74" y="584.97" width="710.03" height="1193.65"/><rect class="cls-8" x="1933.68" y="693.14" width="135.98" height="196.97"/><path class="cls-9" d="M1996.3,693.14s1.45,65.66-62.62,116.61V693.14Z"/><path class="cls-9" d="M2009.73,693.14s-1.39,65.66,59.94,116.61V693.14Z"/><rect class="cls-1" x="2001.67" y="693.14" width="3.41" height="196.97"/><rect class="cls-1" x="1933.68" y="751.44" width="135.99" height="2.74"/><rect class="cls-1" x="1933.68" y="822.84" width="135.99" height="2.74"/><path class="cls-1" d="M2072.76,893.2H1930.58V690h142.18Zm-136-6.19h129.79V696.23H1936.78Z"/><rect class="cls-8" x="1719.76" y="693.14" width="135.98" height="196.97"/><path class="cls-9" d="M1782.38,693.14s1.46,65.66-62.62,116.61V693.14Z"/><path class="cls-9" d="M1795.81,693.14s-1.39,65.66,59.94,116.61V693.14Z"/><rect class="cls-1" x="1787.76" y="693.14" width="3.41" height="196.97"/><rect class="cls-1" x="1719.76" y="751.44" width="135.99" height="2.74"/><rect class="cls-1" x="1719.76" y="822.84" width="135.99" height="2.74"/><path class="cls-1" d="M1858.85,893.2H1716.67V690h142.18Zm-136-6.19h129.79V696.23H1722.86Z"/><rect class="cls-8" x="1505.85" y="693.14" width="135.98" height="196.97"/><path class="cls-9" d="M1568.47,693.14s1.45,65.66-62.62,116.61V693.14Z"/><path class="cls-9" d="M1581.9,693.14s-1.39,65.66,59.94,116.61V693.14Z"/><rect class="cls-1" x="1573.84" y="693.14" width="3.41" height="196.97"/><rect class="cls-1" x="1505.85" y="751.44" width="135.99" height="2.74"/><rect class="cls-1" x="1505.85" y="822.84" width="135.99" height="2.74"/><path class="cls-1" d="M1644.93,893.2H1502.75V690h142.18ZM1509,887h129.78V696.23H1509Z"/><rect class="cls-8" x="1933.68" y="988.91" width="135.98" height="196.97"/><path class="cls-9" d="M1996.3,988.91s1.45,65.66-62.62,116.61V988.91Z"/><path class="cls-9" d="M2009.73,988.91s-1.39,65.66,59.94,116.61V988.91Z"/><rect class="cls-1" x="2001.67" y="988.91" width="3.41" height="196.97"/><rect class="cls-1" x="1933.68" y="1047.21" width="135.99" height="2.74"/><rect class="cls-1" x="1933.68" y="1118.62" width="135.99" height="2.74"/><path class="cls-1" d="M2072.76,1189H1930.58V985.81h142.18Zm-136-6.2h129.79V992H1936.78Z"/><rect class="cls-8" x="1719.76" y="988.91" width="135.98" height="196.97"/><path class="cls-9" d="M1782.38,988.91s1.46,65.66-62.62,116.61V988.91Z"/><path class="cls-9" d="M1795.81,988.91s-1.39,65.66,59.94,116.61V988.91Z"/><rect class="cls-1" x="1787.76" y="988.91" width="3.41" height="196.97"/><rect class="cls-1" x="1719.76" y="1047.21" width="135.99" height="2.74"/><rect class="cls-1" x="1719.76" y="1118.62" width="135.99" height="2.74"/><path class="cls-1" d="M1858.85,1189H1716.67V985.81h142.18Zm-136-6.2h129.79V992H1722.86Z"/><rect class="cls-8" x="1505.85" y="988.91" width="135.98" height="196.97"/><path class="cls-9" d="M1568.47,988.91s1.45,65.66-62.62,116.61V988.91Z"/><path class="cls-9" d="M1581.9,988.91s-1.39,65.66,59.94,116.61V988.91Z"/><rect class="cls-1" x="1573.84" y="988.91" width="3.41" height="196.97"/><rect class="cls-1" x="1505.85" y="1047.21" width="135.99" height="2.74"/><rect class="cls-1" x="1505.85" y="1118.62" width="135.99" height="2.74"/><path class="cls-1" d="M1644.93,1189H1502.75V985.81h142.18Zm-136-6.2h129.78V992H1509Z"/><rect class="cls-8" x="1719.76" y="1284.68" width="135.98" height="196.97"/><path class="cls-9" d="M1782.38,1284.68s1.46,65.66-62.62,116.61V1284.68Z"/><path class="cls-9" d="M1795.81,1284.68s-1.39,65.66,59.94,116.61V1284.68Z"/><rect class="cls-1" x="1787.76" y="1284.68" width="3.41" height="196.97"/><rect class="cls-1" x="1719.76" y="1342.99" width="135.99" height="2.74"/><rect class="cls-1" x="1719.76" y="1414.39" width="135.99" height="2.74"/><path class="cls-1" d="M1858.85,1484.75H1716.67V1281.58h142.18Zm-136-6.2h129.79V1287.78H1722.86Z"/><rect class="cls-8" x="1505.85" y="1284.68" width="135.98" height="196.97"/><path class="cls-9" d="M1568.47,1284.68s1.45,65.66-62.62,116.61V1284.68Z"/><path class="cls-9" d="M1581.9,1284.68s-1.39,65.66,59.94,116.61V1284.68Z"/><rect class="cls-1" x="1573.84" y="1284.68" width="3.41" height="196.97"/><rect class="cls-1" x="1505.85" y="1342.99" width="135.99" height="2.74"/><rect class="cls-1" x="1505.85" y="1414.39" width="135.99" height="2.74"/><path class="cls-1" d="M1644.93,1484.75H1502.75V1281.58h142.18Zm-136-6.2h129.78V1287.78H1509Z"/><rect class="cls-8" x="1424.77" y="1615.36" width="729.6" height="163.23"/><path class="cls-10" d="M1662.58,824.18l-.31,894.53a53.2,53.2,0,0,1-53.21,53.19l-467.62-.16a53.2,53.2,0,0,1-53.19-53.22l.31-894.54a53.2,53.2,0,0,1,53.23-53.18l467.61.16A53.2,53.2,0,0,1,1662.58,824.18Z"/><path class="cls-11" d="M1609.05,1778.58l-467.61-.16a60,60,0,0,1-59.87-59.9l.31-894.54a60,60,0,0,1,59.91-59.86l467.61.16a60,60,0,0,1,59.87,59.91l-.31,894.53A60,60,0,0,1,1609.05,1778.58ZM1141.78,777.48A46.58,46.58,0,0,0,1095.24,824l-.31,894.53a46.58,46.58,0,0,0,46.51,46.55l467.62.16a46.58,46.58,0,0,0,46.54-46.52l.31-894.53a46.58,46.58,0,0,0-46.51-46.54Z"/><path class="cls-12" d="M1611.93,1341.79v331a39.75,39.75,0,0,1-39.75,39.75H1187.11a39.74,39.74,0,0,1-39.74-39.75v-331a39.74,39.74,0,0,1,39.74-39.75h385.07a39.73,39.73,0,0,1,39.75,39.75Z"/><rect class="cls-12" x="1147.36" y="1079.17" width="464.56" height="189.56" rx="27.01"/><path class="cls-13" d="M1426.1,1153.4H1314a2.51,2.51,0,0,1-2.51-2.51h0a2.51,2.51,0,0,1,2.51-2.51h112.1a2.52,2.52,0,0,1,2.51,2.51h0A2.51,2.51,0,0,1,1426.1,1153.4Z"/><path class="cls-13" d="M1501.09,1171.53H1314a2.5,2.5,0,0,1-2.51-2.5h0a2.51,2.51,0,0,1,2.51-2.51h187.09a2.51,2.51,0,0,1,2.51,2.51h0A2.5,2.5,0,0,1,1501.09,1171.53Z"/><rect class="cls-14" x="1179.54" y="1124.8" width="107.2" height="107.2"/><polygon class="cls-15" points="1199.42 1203.91 1222.83 1161.71 1240.05 1185.19 1248.64 1175.79 1266.86 1203.91 1199.42 1203.91"/><path class="cls-15" d="M1234,1155.65a6.06,6.06,0,1,1,6.06,6.06A6.06,6.06,0,0,1,1234,1155.65Z"/><rect class="cls-13" x="1311.17" y="1124.8" width="188.91" height="10.99" rx="2.51"/><polygon class="cls-16" points="1338.63 1201.98 1354.07 1204.21 1342.91 1215.11 1345.56 1230.48 1331.74 1223.24 1317.94 1230.51 1320.56 1215.13 1309.38 1204.25 1324.82 1201.99 1331.71 1188 1338.63 1201.98"/><polygon class="cls-16" points="1392.11 1201.98 1407.55 1204.21 1396.38 1215.11 1399.04 1230.48 1385.22 1223.24 1371.42 1230.51 1374.04 1215.13 1362.86 1204.25 1378.3 1201.99 1385.19 1188 1392.11 1201.98"/><polygon class="cls-16" points="1445.58 1201.98 1461.03 1204.21 1449.86 1215.11 1452.52 1230.48 1438.7 1223.24 1424.9 1230.51 1427.52 1215.13 1416.34 1204.25 1431.77 1201.99 1438.66 1188 1445.58 1201.98"/><polygon class="cls-16" points="1499.06 1201.98 1514.5 1204.21 1503.34 1215.11 1505.99 1230.48 1492.18 1223.24 1478.37 1230.51 1481 1215.13 1469.81 1204.25 1485.25 1201.99 1492.14 1188 1499.06 1201.98"/><polygon class="cls-16" points="1552.54 1201.98 1567.98 1204.21 1556.82 1215.11 1559.47 1230.48 1545.65 1223.24 1531.85 1230.51 1534.48 1215.13 1523.29 1204.25 1538.73 1201.99 1545.62 1188 1552.54 1201.98"/><rect class="cls-12" x="1147.36" y="859.52" width="464.56" height="189.56" rx="27.01"/><path class="cls-13" d="M1426.1,933.76H1314a2.51,2.51,0,0,1-2.51-2.51h0a2.51,2.51,0,0,1,2.51-2.51h112.1a2.52,2.52,0,0,1,2.51,2.51h0A2.52,2.52,0,0,1,1426.1,933.76Z"/><path class="cls-13" d="M1501.09,951.89H1314a2.51,2.51,0,0,1-2.51-2.51h0a2.5,2.5,0,0,1,2.51-2.5h187.09a2.5,2.5,0,0,1,2.51,2.5h0A2.51,2.51,0,0,1,1501.09,951.89Z"/><rect class="cls-14" x="1179.54" y="905.16" width="107.2" height="107.2"/><polygon class="cls-15" points="1199.42 984.27 1222.83 942.07 1240.05 965.55 1248.64 956.15 1266.86 984.27 1199.42 984.27"/><path class="cls-15" d="M1234,936a6.06,6.06,0,1,1,6.06,6.06A6.06,6.06,0,0,1,1234,936Z"/><rect class="cls-13" x="1311.17" y="905.16" width="188.91" height="10.99" rx="2.51"/><polygon class="cls-16" points="1338.63 982.34 1354.07 984.57 1342.91 995.47 1345.56 1010.84 1331.74 1003.6 1317.94 1010.87 1320.56 995.49 1309.38 984.61 1324.82 982.35 1331.71 968.36 1338.63 982.34"/><polygon class="cls-16" points="1392.11 982.34 1407.55 984.57 1396.38 995.47 1399.04 1010.84 1385.22 1003.6 1371.42 1010.87 1374.04 995.49 1362.86 984.61 1378.3 982.35 1385.19 968.36 1392.11 982.34"/><polygon class="cls-16" points="1445.58 982.34 1461.03 984.57 1449.86 995.47 1452.52 1010.84 1438.7 1003.6 1424.9 1010.87 1427.52 995.49 1416.34 984.61 1431.77 982.35 1438.66 968.36 1445.58 982.34"/><polygon class="cls-16" points="1499.06 982.34 1514.5 984.57 1503.34 995.47 1505.99 1010.84 1492.18 1003.6 1478.37 1010.87 1481 995.49 1469.81 984.61 1485.25 982.35 1492.14 968.36 1499.06 982.34"/><polygon class="cls-16" points="1552.54 982.34 1567.98 984.57 1556.82 995.47 1559.47 1010.84 1545.65 1003.6 1531.85 1010.87 1534.48 995.49 1523.29 984.61 1538.73 982.35 1545.62 968.36 1552.54 982.34"/><g class="cls-17"><path class="cls-10" d="M1321,1428.26a70.37,70.37,0,0,0-9.35-.62c-.52,0-1,0-1.54,0a70.13,70.13,0,0,0,0,140.22l1.54,0a68.73,68.73,0,0,0,9.35-.62,70.19,70.19,0,0,0,60-58.62,72.31,72.31,0,0,0,.83-10.89A70.15,70.15,0,0,0,1321,1428.26Zm0,115.83a47.29,47.29,0,0,1-9.35.93l-1.54,0a47.25,47.25,0,0,1,0-94.44l1.54,0a47.24,47.24,0,0,1,9.35,93.55Z"/><path class="cls-10" d="M1264.41,1497.78a47.11,47.11,0,0,0,1.26,10.89h-86.94v-10.89Z"/><path class="cls-10" d="M1580.56,1497.78v10.89H1357.63a47.66,47.66,0,0,0,1.26-10.89Z"/><path class="cls-10" d="M1321,1317v134.45a47.29,47.29,0,0,0-9.35-.93l-1.54,0V1317Z"/><path class="cls-10" d="M1321,1544.09v145.35h-10.89V1545l1.54,0A47.29,47.29,0,0,0,1321,1544.09Z"/><polygon class="cls-10" points="1569.66 1317.01 1569.66 1505.18 1569.66 1515.37 1580.56 1515.37 1580.56 1505.18 1580.56 1317.87 1569.66 1317.01"/><rect class="cls-10" x="1446.74" y="1317.01" width="10.9" height="372.42"/><rect class="cls-10" x="1335.28" y="1330.82" width="53.87" height="83.66"/><rect class="cls-10" x="1178.74" y="1393.78" width="52.51" height="60.12"/><rect class="cls-10" x="1178.74" y="1330.82" width="105.67" height="52.51"/><rect class="cls-10" x="1398.25" y="1330.82" width="37.68" height="52"/><rect class="cls-10" x="1398.25" y="1393.78" width="37.68" height="86.91"/><rect class="cls-10" x="1398.25" y="1518.99" width="37.68" height="51.45"/><rect class="cls-10" x="1481.84" y="1330.82" width="30.4" height="149.87"/><rect class="cls-10" x="1522.11" y="1330.82" width="37.68" height="149.87"/><rect class="cls-10" x="1476.07" y="1524.46" width="104.49" height="164.97"/><rect class="cls-10" x="1331.94" y="1627.04" width="103.99" height="62.39"/><rect class="cls-10" x="1331.94" y="1582.21" width="103.99" height="33.07"/><rect class="cls-10" x="1178.74" y="1582.21" width="93.41" height="107.23"/><rect class="cls-10" x="1178.74" y="1514.5" width="39.33" height="57.78"/></g><rect class="cls-11" x="937.81" y="1734.91" width="17.58" height="23.95"/><rect class="cls-11" x="1037.27" y="1734.91" width="17.58" height="23.95"/><path class="cls-18" d="M934.09,1762.49A12.51,12.51,0,1,1,946.6,1775,12.52,12.52,0,0,1,934.09,1762.49Z"/><path class="cls-11" d="M939,1762.49a7.6,7.6,0,1,1,7.6,7.6A7.6,7.6,0,0,1,939,1762.49Z"/><path class="cls-18" d="M1033.56,1762.49a12.51,12.51,0,1,1,12.51,12.52A12.52,12.52,0,0,1,1033.56,1762.49Z"/><path class="cls-11" d="M1038.47,1762.49a7.6,7.6,0,1,1,7.6,7.6A7.6,7.6,0,0,1,1038.47,1762.49Z"/><path class="cls-19" d="M874.63,1712.59h242.93a0,0,0,0,1,0,0v6.51a29.23,29.23,0,0,1-29.23,29.23H906.24a31.61,31.61,0,0,1-31.61-31.61v-4.13A0,0,0,0,1,874.63,1712.59Z"/><path class="cls-20" d="M1125.89,1412.49v289.92a46.1,46.1,0,0,1-1.13,10.18h-34a26.69,26.69,0,0,0-26.68,26.71v9H930.86v-9a26.66,26.66,0,0,0-26.68-26.71H867.42a46.1,46.1,0,0,1-1.13-10.18V1412.49a45.9,45.9,0,0,1,45.88-45.92H1080A45.89,45.89,0,0,1,1125.89,1412.49Z"/><path class="cls-11" d="M1045,1366.42c-31.42-12.39-57.6-11.77-74-9.07-17.82,2.93-28.35,8.87-28.45,8.93l-2.17-3.78c.45-.25,11.17-6.33,29.69-9.41,17-2.83,44.11-3.51,76.55,9.28Z"/><path class="cls-21" d="M918.86,1366.57V1717a26.55,26.55,0,0,0-6.69-3.18V1366.57Z"/><rect class="cls-21" x="965.71" y="1366.57" width="6.69" height="381.77"/><rect class="cls-21" x="1015.67" y="1366.57" width="6.69" height="381.77"/><path class="cls-21" d="M1076.41,1366.57v350.22a26.39,26.39,0,0,0-6.69,6.08v-356.3Z"/><path class="cls-22" d="M721.29,1216.46c0-.49,7.32-15.63,5-16.8s-6.5-1-7,1.67S721.29,1216.46,721.29,1216.46Z"/><path class="cls-22" d="M724.05,1225.5c0-1.49-1.72-24.15-5.54-28.66s-11.63-10.93-14.08-10.73-12.06,13-9.17,22.73,15.07,23,15.07,23Z"/><path class="cls-23" d="M738.62,1198l-22.25,6.67a1.4,1.4,0,0,1-1.74-.94l-12.72-42.44a1.39,1.39,0,0,1,.93-1.73l22.26-6.68a1.4,1.4,0,0,1,1.74.94l12.72,42.44A1.4,1.4,0,0,1,738.62,1198Z"/><rect class="cls-24" x="702.97" y="1156.69" width="26.03" height="47.1" rx="2.48" transform="translate(-308.7 255.24) rotate(-16.68)"/><path class="cls-22" d="M702.13,1187.76s9.27-14.26,11.53-13.47c3.24,1.13-8.4,19.23-8.4,19.23s8.62-13.52,10-12.51c3.07,2.32-1.82,10.82-6.66,17.33,0,0,8.67-7.94,8.95-6.51,1,5-9.52,17.14-9.52,17.14l-5.87-13.41Z"/><path class="cls-22" d="M695.18,1201c.45-1.75,2.71-35.8,3.68-32.57s3.27,21.09,3.27,21.09Z"/><path class="cls-10" d="M843.09,1191.62s-1,37-11.65,66.91c-8.43,23.6-22.93,42.74-47.78,35.67-2.55-.73-5-1.5-7.4-2.34h0c-50.5-17.59-66.84-57.86-66.84-57.86,3.76-6.2,14.66-8.49,14.66-8.49,10.17.55,54.86,19.53,57.71,20.11,10.34,2.07,18.69-54.73,25.41-74.41s34.21-28.49,34.21-28.49Z"/><path class="cls-25" d="M832.41,1231.85l-1,26.68c-8.43,23.6-22.93,42.74-47.78,35.67-2.55-.73-5-1.5-7.4-2.34.8.1,16,2.16,22.38-4.21,6.55-6.55,5.86-28.26,17.92-42.73S832.41,1231.85,832.41,1231.85Z"/><path class="cls-26" d="M833.8,1719.76s12.43,11.35,10,19.41-13.64,13.43-15.16,23.28-7.58,15.22-13,15.22h-26s-4-6.93,5.68-9S808.64,1755,808,1744.24s.91-25.07.91-25.07l20.61-4.78Z"/><path class="cls-26" d="M696.86,1775.61h76.6a5.54,5.54,0,0,0,5.55-5.38c.12-4.49-.25-11-2.74-16.52-4.09-9.07-6.67-10.66,10.6-37-5.19,5.35-19.19,2.91-31,1.32-1.45,2.34-23.37,36.21-28.2,39.68C722.32,1761.51,698.5,1760.14,696.86,1775.61Z"/><path class="cls-11" d="M816.21,1350.82s-55.53,104.8-70.63,162.51c-11.71,44.79,59.78,218.09,59.78,218.09s5.84-.38,15.38-4.13c9.36-3.68,12.92-13.55,12.92-13.55s-4.24-123.91-18.71-183.86c-3.25-13.46,15.74-56.86,47.78-80.64S908.11,1349,889,1343.81,816.21,1350.82,816.21,1350.82Z"/><path class="cls-27" d="M863.76,1321.07s-58.38,214-76.1,262.09-45.8,150.07-45.8,150.07a74,74,0,0,0,40.5,4.4s85.38-125.07,89.09-180.35c1.72-25.56,87.6-126.85,78-192.9Z"/><path class="cls-10" d="M949.34,1387.85s-12.43,6.27-34.39,8.11h0c-25.15,2.11-62.82-1.59-108.69-27.13,0,0-12.8-10.55,2.92-55.39,11.9-33.94,17.7-105.51,32.22-170.73,0,0,47.12-14.78,84.92-2,28.88,9.77,26,54.09,31.34,100.24.49,4.31,1.06,8.64,1.73,13C967.26,1304.41,949.34,1387.85,949.34,1387.85Z"/><path class="cls-28" d="M824.77,1046.15s32.16-52.34,57.06-25.4c0,0,16.28,4.16,25.61,29.5,9.51,25.86-5.31,48.7-15.2,45-6.35-2.37-9.32,8.57-9.32,8.57Z"/><path class="cls-28" d="M876.9,1016.62s2.21-21.67,33.88-19.56c0,0-15,.26-18.19,6.51,0,0,10.89-7,18.83-3.6s11.31,18.27,10.88,23-6.53,19.51-11.87,20.28-12.33-3-12.33-3Z"/><path class="cls-22" d="M892.85,1139.38c-3-7.93-7.4-16.25-11-41.57l-1.9.67-32,11.26s2.24,10.25,3.67,20c.58,4,1,11.1,1.27,17.31.28,6.36,6.53,7,12.88,6.66C882.75,1152.93,892.07,1146.63,892.85,1139.38Z"/><path class="cls-29" d="M848,1109.74s2.24,10.25,3.67,20c18.34-3.18,25.65-21.37,28.29-31.26Z"/><path class="cls-28" d="M882.87,1094.41s7.46-16.64,7.89-30c.31-9.54-9.4-43.36-43.35-33.39a47.51,47.51,0,0,0-18.47,10.2c-6.79,6.17-16.07,18.71.41,47.06L834,1098Z"/><path class="cls-22" d="M843.21,1119.86s43.67-5.56,39.79-32.7-.86-46.13-28.91-43.73-32,13.53-32.87,22.9S831.75,1120.61,843.21,1119.86Z"/><path class="cls-28" d="M834.16,1045.62s16.51,30.12,35.5,32.19,26.21-4,26.21-4a52.37,52.37,0,0,1-21.37-28.18S841,1029.17,834.16,1045.62Z"/><path class="cls-28" d="M837.48,1047.78s-7.88,8.39-9.05,15.62-.11,21.59-4.32,21.7c0,0-12.11-20.34-3.77-34C829.18,1036.54,837.48,1047.78,837.48,1047.78Z"/><path class="cls-28" d="M836,1049.1s13.3,32.11,37.93,39.46c0,0-26-17.16-31.18-38.88S836,1049.1,836,1049.1Z"/><path class="cls-25" d="M949.34,1387.85s-12.43,6.27-34.39,8.11h0s-18-22.63,2.08-48-1.57-72.14,13.94-97.59c10.79-17.7,21.29-13.58,26.69-9.45.49,4.31,1.06,8.64,1.73,13C967.26,1304.41,949.34,1387.85,949.34,1387.85Z"/><path class="cls-22" d="M1028.55,1350.25s2.68,6.23,6.42,6.65c6.1.68,17.73,5.8,19.56,6.88,5,2.94,4.61,16.08-.34,17.32s-7.42-9.8-22.88-12.75c-5.24-1-12.89,2.62-16-9.94Z"/><path class="cls-10" d="M926.3,1140.7c45,16.54,46.62,96.19,66.67,131.27,20.67,36.18,40.8,83.8,40.8,83.8s-.36,1.42-8.07,3.63a32.16,32.16,0,0,1-11.1.9s-42.48-38.43-54-53.59-38.75-85.49-38.75-85.49S908.45,1134.14,926.3,1140.7Z"/><path class="cls-22" d="M1016.44,1361.52s1.09,5.35,7.72,9.68,11.95,8.66,12.59,6-3.69-5.57-4.72-10.51S1016.44,1361.52,1016.44,1361.52Z"/><polygon class="cls-30" points="2169.44 626.71 1409.7 626.71 1450.2 446.69 2128.94 446.69 2169.44 626.71"/><rect class="cls-31" x="1547.78" y="500.13" width="69.68" height="69.68"/><path class="cls-11" d="M1544.55,496.91V573h76.14V496.91Zm69.68,69.67H1551V503.35h63.22Z"/><rect class="cls-11" x="1547.78" y="531.81" width="69.68" height="6.31" transform="translate(2117.58 -1047.66) rotate(90)"/><rect class="cls-11" x="1530.71" y="483.86" width="100.87" height="14.61"/><rect class="cls-31" x="1755.16" y="500.13" width="69.68" height="69.68"/><path class="cls-11" d="M1751.93,496.91V573h76.14V496.91Zm69.68,69.67h-63.23V503.35h63.23Z"/><rect class="cls-11" x="1755.16" y="531.81" width="69.68" height="6.31" transform="translate(2324.96 -1255.03) rotate(90)"/><rect class="cls-11" x="1737.32" y="483.86" width="100.87" height="14.61"/><rect class="cls-31" x="1961.77" y="500.13" width="69.68" height="69.68"/><path class="cls-11" d="M1958.54,496.91V573h76.14V496.91Zm69.68,69.67H1965V503.35h63.23Z"/><rect class="cls-11" x="1961.77" y="531.81" width="69.68" height="6.31" transform="translate(2531.57 -1461.64) rotate(90)"/><rect class="cls-11" x="1943.93" y="483.86" width="100.87" height="14.61"/><path class="cls-32" d="M547.9,1777.32h99.23c5.32-4.51-3.68-14.76-13.08-15.44-4.08-.31-9.24.54-15.14,1.79-1.37-18.14-9.17-99.68-38.56-96.4-33.05,3.67,0,35.91,9.34,55,6.92,14.14,14.22,34.41,17.56,44-2.68.58-5.46,1.15-8.3,1.68-4.38-13.45-20.68-58.69-41.4-56.06-24.34,3.09-14.56,21.23,2.69,32,12.66,7.91,28.19,19.17,35.58,24.6a106,106,0,0,1-19.41,1.56C559.41,1769.61,551.11,1774.62,547.9,1777.32Z"/><path class="cls-32" d="M2590.81,1775.71H2516c-4-3.4,2.77-11.12,9.85-11.63,3.08-.24,7,.41,11.42,1.35,1-13.67,6.9-75.11,29.05-72.64,24.9,2.77,0,27.06-7,41.44-5.22,10.65-10.72,25.93-13.23,33.14,2,.44,4.11.86,6.25,1.26,3.3-10.13,15.58-44.22,31.2-42.23,18.33,2.32,11,16-2,24.1-9.54,6-21.24,14.44-26.81,18.54a79.11,79.11,0,0,0,14.63,1.17C2582.13,1769.91,2588.38,1773.68,2590.81,1775.71Z"/><g id="man"><path class="cls-22" d="M1797.85,1129.39c3.51,9.44,9.59,20.4,16,23.12,7.24,3.09,10.26,7.46,10.26,7.46l5.85-3.4,7-4.06s-.17-.77-.51-2-.86-3-1.57-5a6.76,6.76,0,0,1-.83-6.21c1.32-3.45,1-8.79-1.19-12s-4.4-11.28-5.75-11c-3.26.56,1.61,11.59.21,13.63a2.4,2.4,0,0,1-3.14,1.07l-.05,0c-9.16-4-20.27-25.74-25.19-22.81C1797.06,1109.18,1796.35,1125.37,1797.85,1129.39Z"/><path class="cls-13" d="M1829.54,1142.54l-11.48,8.06a1.81,1.81,0,0,1-2.51-.43l-29.39-41.84a1.79,1.79,0,0,1,.43-2.5l11.48-8.07a1.81,1.81,0,0,1,2.51.44L1830,1140A1.81,1.81,0,0,1,1829.54,1142.54Z"/><rect class="cls-28" x="1794.45" y="1102.53" width="10.96" height="54.73" rx="1.37" transform="translate(-322.37 1240.51) rotate(-35.1)"/><path class="cls-28" d="M1994.18,1082.51s-58.4,101.86-79.58,120.6l-77.68-57.92s-11.27,3.46-16.21,14.77c0,0,59.7,96.21,93.62,100.19C1960.63,1265.57,2026,1145,2026,1145Z"/><path class="cls-33" d="M2103.29,1777H2137c4.24-2.3,8-7.58,9.22-15.46,1.65-10.87,13.83-16.79,16.47-25.69s-10.87-21.4-10.87-21.4l-2.26-2.91-2.35-3-22.39,5.28s-.56,5.33-.89,12.12a154.77,154.77,0,0,0-.1,15.54c.66,11.85-3.31,24.62-13.85,26.93C2102.23,1770.06,2102.58,1774.68,2103.29,1777Z"/><path class="cls-33" d="M1930.51,1775.27h77.16c3.71-4.53,2.35-21.24,1.79-26.7-.12-1.1-.2-1.74-.2-1.74s-26.35-21.08-30-4.94c-.11.51-.24,1-.39,1.49-4.56,15.1-25,22-36.82,23.87C1934.4,1768.49,1931.56,1772.48,1930.51,1775.27Z"/><path class="cls-20" d="M1945.21,1344.56s4,49.92,8.71,109.92c6.39,81.51,14.07,181.64,14.83,200.6,1.32,32.94,6.59,85.62,6.59,85.62s12.51,12.52,37.54,7.25c0,0,22.31-75.21,28.68-154.79.1-1.3.2-2.62.3-3.93,5.93-81,15.14-251.59,15.14-251.59Z"/><path class="cls-21" d="M1945.21,1344.56s4,49.92,8.71,109.92l87.64,138.68c.1-1.3.2-2.62.3-3.93,5.93-81,15.14-251.59,15.14-251.59Z"/><path class="cls-20" d="M1964.76,1336.42s60.49,184.46,102.17,271.89,54.86,111.92,54.86,111.92,27.21-9.36,30-16.62c0,0-14.44-153.44-43.3-195.1-16.31-23.55-27.27-103.71-26.91-127.44s-2.33-70.88-2.33-70.88Z"/><path class="cls-22" d="M1981.44,1086.94c28.18,8.89,76.94-15.11,76.94-15.11s-26-19.5-24.62-60L2012,1029.35l-14.8,11.92a178.22,178.22,0,0,0,1.67,19.36s0,.06,0,.1a17.27,17.27,0,0,1-6.63,16A63,63,0,0,0,1981.44,1086.94Z"/><path class="cls-34" d="M1997.17,1041.27a178.22,178.22,0,0,0,1.67,19.36c16.41-2.82,35-29.32,35-29.32a52.18,52.18,0,0,0-21.88-2Z"/><path class="cls-22" d="M1988.55,1040.61s46.55,7.73,50.92-21.33,13.32-47.64-16.22-53.81-37,4.06-40.81,13.4S1976.55,1037.85,1988.55,1040.61Z"/><path class="cls-13" d="M1942.1,1348.72a4.61,4.61,0,0,0,3,1.13c10.58-.15,41.44,5.73,67.55,3.05,22-2.11,41.5-8.64,62.42-18,2.78-1.24,9.17-4.65,9-7.76-.09-3.4-.43-8.33-.86-14.54-1.48-21.6-4.06-58.75-1.54-101.6.45-8,.69-15.9.72-23.69.21-58.08-11.3-109.17-34.45-126.46-2-1.41-14.11,4.52-25.26,10-10.3,5.08-18.21,5.58-28,3.61l-12.12,8.67c-11.86,11-24.84,26-30.48,48.68-4.81,19.33-7.63,54.19-9.18,90.32-.7,16.37-1.27,32.88-1.41,48.55v.56c-.14,1.55-.14,3.25-.14,4.8C1940.83,1316.26,1941.4,1348.15,1942.1,1348.72Z"/><path class="cls-28" d="M2083.21,1312.58c-1.48-21.6-4.06-58.75-1.54-101.6.45-8,.69-15.9.72-23.69-9.64-23.39-17.52-40.35-17.52-40.35h-24.3S2022.75,1268.63,2083.21,1312.58Z"/><path class="cls-13" d="M2039.5,1016.48s-4.77-.8-4-7.38.76-15.18-4.59-13.57-5.62,5.88-7.81,3.38-2.24-13-18.16-13.77-22.38,4.8-29.79,1.55-7.79-14.46-7.79-14.46,2.11,4,5.29,5.28c0,0-12.35-16.89,1.94-28.48s28.88-4,37.15-3.49c18.23,1.1,30,2.19,36,14.17S2051.2,1005,2039.5,1016.48Z"/><path class="cls-27" d="M2394,1755c-1.45,9,5.32,19.5,15.12,23.35s18.92-.37,20.37-9.41-5.32-19.5-15.12-23.34S2395.46,1745.94,2394,1755Z"/><path class="cls-27" d="M2269.58,1755.23c-1.45,9,5.32,19.49,15.12,23.34s18.92-.36,20.37-9.41-5.32-19.49-15.12-23.34S2271,1746.18,2269.58,1755.23Z"/><path class="cls-10" d="M2429.32,1752.7l-22.34,9.14a19,19,0,0,1-7.43,1.37L2259.22,1762l-21.95-26Z"/><path class="cls-27" d="M2285.64,1452l-53.7-78.62-.07-.15c-.34-.7-8.9-17.52-54.35-22.1l-.21,0-37.43-5.06c-4.85-.88-18.81-2.46-25,.76-2.76,1.43-3.8,3.73-3.18,7,1.22,6.53,36.9,57.52,60.58,90.2l-7,1.77c-6.08-8.39-59.49-82.28-61.25-91.68-.92-4.92,1-8.66,5.74-11.1,10.16-5.26,29.73-2,31.81-1.63l36.92,5c48.94,4.95,59.72,23.48,60.81,25.61l53.51,78.35Z"/><path class="cls-10" d="M2193.56,1436.42,2122,1452.07s-19.67,9.24-5.14,48.83c12.79,34.83,79.82,230.3,79.82,230.3s14,40.68,95.62,28.7Z"/><path class="cls-35" d="M2165.49,1490.29l76.51,218.9a67.28,67.28,0,0,0,14.7,23.81c12,12.64,28.4,20.81,44.5,20.88l70.16.3h1.73l43.95.19a42.49,42.49,0,0,0,12.28-1.68c.89-.25,1.74-.54,2.58-.85,13.86-5.2,22.29-17.91,22.62-33.52a53.21,53.21,0,0,0-4.19-21.14l-85.58-209.43c-9.13-22.33-31.25-39.43-53.74-41.54l-12.69-1.19-3-.28h0l-2.54-.23-42.4-4-5.2-.48-40.92-3.83a43.64,43.64,0,0,0-17.52,1.73l-1,.35-2.1.82C2165.83,1446.68,2157.39,1467.1,2165.49,1490.29Z"/><g class="cls-4"><path class="cls-10" d="M2256.7,1733c12,12.64,28.4,20.81,44.5,20.88l70.16.3h1.73l43.95.19a42.49,42.49,0,0,0,12.28-1.68c.89-.25,1.74-.54,2.58-.85,13.86-5.2,26.53-24.1,21.64-44.12,0,0-148.69-1.67-178.4,3.3C2259.81,1713.59,2258,1725.06,2256.7,1733Z"/></g><path class="cls-10" d="M2292.75,1444.52c.36.19,38.06,20.43,46.91,38.27,9.1,18.34,93.3,232,94.15,234.21.07.17,6.17,20.83-6.57,36.25l2.08-.55c.89-.25,1.74-.54,2.58-.85,11.59-16,4.75-34.42,4.43-35.22-3.47-8.83-85.11-216-94.26-234.49-8-16.17-35.08-32.26-43.75-37.11l-3-.28h0Z"/><path class="cls-10" d="M2245.15,1440.06c5.51,3.23,26.92,17.11,37.31,42.78,12.2,30.12,85.79,248.87,86.53,251.07l.06.16.08.15c.06.11,5.58,11.91.47,20h3.49c4.67-8.61-.76-19.17-1.57-20.65-2.27-6.76-74.45-221.24-86.55-251.1-9-22.13-25.77-35.86-34.62-41.9Z"/><path class="cls-10" d="M2183.59,1439.13a78.93,78.93,0,0,1,15.46,10.74,86.37,86.37,0,0,1,22.5,31.88c12.2,30.1,82,248.13,82.69,250.32l.05.18.09.15c.07.11,4.1,13.45-1,21.49l4.42,0c3.61-7.35-.13-20.6-1-22.17-2.23-7-70.62-220.54-82.72-250.41-11.37-28.08-32.86-40.93-37.35-43.37l-1,.35Z"/><path class="cls-22" d="M2132.57,1303.4s3.12,22.31,3.34,25.21c1.46,19.64-1.31,21.53,9.38,25,3,1,11,1,15.65-4.7,0,0-7.48-.48-6.19-11.26,1.49-12.43.71-8.9-6.82-19l-1.75-18.64Z"/><path class="cls-13" d="M2142.72,1322.32a79.91,79.91,0,0,1-18.24,1s-26-80.25-29.32-87.58-77.16-94.1-77.16-94.1l30.75-77s79.85,133.37,87.95,152.11c13.4,31,18.05,100.4,18.05,100.4A33.44,33.44,0,0,1,2142.72,1322.32Z"/><path class="cls-22" d="M2135.91,1328.61s-1.89,4.9-1.95,7.2c-.21,7.37-2.26,10.78-1,11.43,2.71,1.34,5.42-4.42,6.45-9.42S2135.91,1328.61,2135.91,1328.61Z"/></g><path class="cls-11" d="M1591.26,832.64a6,6,0,1,0-6,6A6,6,0,0,0,1591.26,832.64Z"/><path class="cls-11" d="M1596,826.17a2,2,0,0,1-1.38-.55c-3.16-3-6.43-4.43-9.72-4.3-5.13.2-8.78,4.15-8.82,4.19a2,2,0,0,1-3-2.69c.19-.21,4.77-5.22,11.59-5.51,4.42-.18,8.69,1.63,12.69,5.39a2,2,0,0,1,.08,2.84A2,2,0,0,1,1596,826.17Z"/><path class="cls-11" d="M1602.27,817.47a2,2,0,0,1-1.37-.54c-5.26-4.95-10.73-7.36-16.27-7.13-8.62.34-14.7,6.94-14.76,7a2,2,0,0,1-3-2.68c.29-.33,7.22-7.91,17.54-8.34,6.68-.28,13.15,2.48,19.23,8.22a2,2,0,0,1-1.38,3.46Z"/><path class="cls-11" d="M1608.85,809a2,2,0,0,1-1.37-.55c-7.46-7-15.26-10.43-23.17-10.1-12.3.49-20.93,9.89-21,10a2,2,0,0,1-3-2.69c.39-.44,9.79-10.73,23.79-11.31,9.06-.38,17.84,3.39,26.13,11.19a2,2,0,0,1-1.38,3.47Z"/><path class="cls-11" d="M1199.14,807.15h-39.2a2.61,2.61,0,0,1-2.61-2.61h0a2.61,2.61,0,0,1,2.61-2.61h39.2a2.61,2.61,0,0,1,2.61,2.61h0A2.61,2.61,0,0,1,1199.14,807.15Z"/><path class="cls-11" d="M1199.14,818.69h-39.2a2.6,2.6,0,0,1-2.61-2.6h0a2.61,2.61,0,0,1,2.61-2.61h39.2a2.61,2.61,0,0,1,2.61,2.61h0A2.6,2.6,0,0,1,1199.14,818.69Z"/><path class="cls-11" d="M1199.14,831h-39.2a2.6,2.6,0,0,1-2.61-2.6h0a2.61,2.61,0,0,1,2.61-2.61h39.2a2.61,2.61,0,0,1,2.61,2.61h0A2.6,2.6,0,0,1,1199.14,831Z"/><path class="cls-3" d="M729.25,466s14.37-25.74,48.75-22.88c0,0,49.9-42.9,103.12-5.72,0,0,56.57-9.21,98.47,8,27.93,11.46,37.16,23.48,37.16,23.48Z"/><path class="cls-3" d="M964.25,357s32-57.33,108.57-51c0,0,111.15-95.54,229.68-12.74,0,0,126-20.52,219.3,17.77,62.22,25.52,82.76,52.3,82.76,52.3Z"/><path class="cls-3" d="M857,573.28s24.36-42.72,82.64-38c0,0,84.6-71.2,174.81-9.49,0,0,95.9-15.29,166.92,13.23,47.35,19,63,39,63,39Z"/><circle class="cls-12" cx="1410.74" cy="1443.98" r="63.8"/><path class="cls-36" d="M1315,1452.91c1.84,55,97.32,139.7,97.32,139.7s89.6-90.94,87.76-145.89-44.76-98.13-95.87-96.42S1313.18,1398,1315,1452.91Zm37.82-7.11a54.56,54.56,0,1,1,56.35,52.7A54.66,54.66,0,0,1,1352.84,1445.8Z"/><rect class="cls-37" x="230.82" y="1775.16" width="2520.93" height="6.92" rx="2.91"/></svg>