<svg id="Layer_1" data-name="Layer 1" xmlns="http://www.w3.org/2000/svg" xmlns:xlink="http://www.w3.org/1999/xlink" viewBox="0 0 576.62 297.56"><defs><style>.cls-1{fill:#c3e2c3;fill-rule:evenodd;}.cls-2,.cls-23,.cls-39,.cls-40{fill:#fff;}.cls-3{fill:url(#linear-gradient);}.cls-4{fill:#2f365c;}.cls-5{fill:#004052;}.cls-6{fill:#ececed;}.cls-7{fill:#b1abad;}.cls-8{fill:url(#linear-gradient-2);}.cls-9{fill:#0d4639;}.cls-10{fill:#efe952;}.cls-11{fill:#cdc5c7;}.cls-12,.cls-27{fill:none;stroke-miterlimit:10;}.cls-12{stroke:#089364;stroke-width:1.19px;}.cls-13{fill:#005449;}.cls-14{fill:#424143;}.cls-15,.cls-17{opacity:0.4;}.cls-16{fill:#6d6f71;}.cls-17{fill:#010000;}.cls-18{fill:#919395;}.cls-19{fill:#59595b;}.cls-20{fill:#030326;}.cls-21{fill:#f4eaea;}.cls-22{fill:#1c2141;}.cls-23{opacity:0.31;}.cls-24{fill:#f9fafb;}.cls-25{fill:#cde2de;}.cls-26{fill:#170d3c;}.cls-27{stroke:#84cba3;stroke-width:1.37px;}.cls-28{fill:#73c48f;}.cls-29{fill:#26582c;}.cls-30{fill:#c0d672;}.cls-31{fill:#82b04b;}.cls-32{fill:#003e43;}.cls-33{fill:#156a3d;}.cls-34{fill:#60aa61;}.cls-35{fill:#003b1b;}.cls-36{fill:#131036;}.cls-37{fill:#23824d;}.cls-38{fill:#83b77e;}.cls-39{opacity:0.77;}.cls-40{opacity:0.42;}.cls-41{fill:url(#linear-gradient-3);}</style><linearGradient id="linear-gradient" x1="157.3" y1="229.46" x2="157.3" y2="255.26" gradientUnits="userSpaceOnUse"><stop offset="0.05" stop-color="#4022df"/><stop offset="0.15" stop-color="#3f28da"/><stop offset="0.28" stop-color="#3b39cd"/><stop offset="0.42" stop-color="#3554b8"/><stop offset="0.58" stop-color="#2d7b9a"/><stop offset="0.75" stop-color="#23ac74"/><stop offset="0.92" stop-color="#17e548"/></linearGradient><linearGradient id="linear-gradient-2" x1="368.88" y1="242.41" x2="368.88" y2="382.01" xlink:href="#linear-gradient"/><linearGradient id="linear-gradient-3" x1="302.2" y1="444.31" x2="302.2" y2="444.31" gradientUnits="userSpaceOnUse"><stop offset="0.07" stop-color="#fff"/><stop offset="0.41" stop-color="#50eb75"/><stop offset="0.52" stop-color="#17e548"/></linearGradient></defs><path class="cls-1" d="M478.08,416.35H77.8c-21.76-18.09-38.38-45.86-37-73.13,3.54-67.92,121.27-82.36,158.39-95.44,56.65-20,81.19-96.42,149.09-97.81,132.88-2.7,222,188.62,129.76,266.38" transform="translate(-9 -122.98)"/><path class="cls-1" d="M173.5,213.69c25.13-8.19,47.74-8.9,50.49-1.58S208.61,232,183.48,240.2s-47.73,8.9-50.49,1.58,15.39-19.9,40.51-28.09" transform="translate(-9 -122.98)"/><path class="cls-2" d="M215,301.29s-64.35-3.1-75.43,45.86l-8.94,4V382H480.12s4.41-9.11,5.12-12.52V335.37l-12.87-42.14-37.18-50.82H326.72a52.26,52.26,0,0,0-27,7.39Z" transform="translate(-9 -122.98)"/><polygon class="cls-3" points="193 255.26 121.61 255.26 121.61 242.36 193 229.46 193 255.26"/><path class="cls-4" d="M257,293.76l58.1-35.65a28.49,28.49,0,0,1,14.81-4h79.62c5.4,0,10.23,2.73,12.05,6.82l14.13,31.73c1.32,3-1.91,8.63-5.83,8.66H259.59C255.38,301.32,253.66,295.82,257,293.76Z" transform="translate(-9 -122.98)"/><path class="cls-5" d="M215,301.29h13.81l74.61-45.63c1.48-.91.8-2.92-1-3l-7-.29Z" transform="translate(-9 -122.98)"/><ellipse class="cls-6" cx="155.79" cy="327.83" rx="15.37" ry="10.43" transform="translate(-200.78 100.27) rotate(-47.84)"/><path class="cls-7" d="M167.47,318.12a7.72,7.72,0,0,0-.93-1.24c1.79,5.13-1,12.56-6.91,17.44s-12.73,5.49-16.18,1.75a7.19,7.19,0,0,0,.66,1.47c3,5.07,10.67,4.84,17.12-.52S170.48,323.19,167.47,318.12Z" transform="translate(-9 -122.98)"/><path class="cls-8" d="M472.37,293.23l-33.72-46.1h0l-3.46-4.72H326.72a52.78,52.78,0,0,0-21.78,4.64l0,.08H414.58a10.84,10.84,0,0,1,9.92,6.47l21,47.69c4.84,12.31-7.65,24.35-20.87,23.85-19.83-.74-35.54,5.78-43.89,13.05-10.33,9-21.26,14.67-35,14.67H255.25c-5.05,8.22-2.47,18.89,2.67,29.15h222.2s4.41-9.11,5.12-12.52V335.37Z" transform="translate(-9 -122.98)"/><path class="cls-9" d="M448,327.59a9.77,9.77,0,1,0,9.77-9.52A9.64,9.64,0,0,0,448,327.59Z" transform="translate(-9 -122.98)"/><polygon class="cls-10" points="446.11 199.16 449.23 198.66 451.53 203.68 449.22 204.05 451.31 211.66 445.66 203.61 447.97 203.24 446.11 199.16"/><path class="cls-11" d="M337.42,314.2a2.63,2.63,0,0,1-.48,1.47c-1.3,1.94-5.09,3.33-9.56,3.33s-8.25-1.39-9.55-3.33a2.63,2.63,0,0,1-.48-1.47,3.08,3.08,0,0,1,1.18-2.25c1.69-1.52,5-2.55,8.85-2.55s7.17,1,8.86,2.55A3.08,3.08,0,0,1,337.42,314.2Z" transform="translate(-9 -122.98)"/><path class="cls-2" d="M337.42,314.2a2.63,2.63,0,0,1-.48,1.47H317.83a2.63,2.63,0,0,1-.48-1.47,3.08,3.08,0,0,1,1.18-2.25h17.71A3.08,3.08,0,0,1,337.42,314.2Z" transform="translate(-9 -122.98)"/><path class="cls-11" d="M420.91,313.81a2.65,2.65,0,0,1-.48,1.47c-1.29,1.93-5.08,3.33-9.55,3.33s-8.26-1.4-9.55-3.33a2.65,2.65,0,0,1-.48-1.47,3.08,3.08,0,0,1,1.17-2.26c1.69-1.51,5-2.55,8.86-2.55s7.17,1,8.86,2.55A3.12,3.12,0,0,1,420.91,313.81Z" transform="translate(-9 -122.98)"/><path class="cls-2" d="M420.91,313.81a2.65,2.65,0,0,1-.48,1.47h-19.1a2.65,2.65,0,0,1-.48-1.47,3.08,3.08,0,0,1,1.17-2.26h17.72A3.12,3.12,0,0,1,420.91,313.81Z" transform="translate(-9 -122.98)"/><path class="cls-5" d="M472.37,293.23,440.24,249.3s-12.05,3.91-10.13,8.21c1.58,3.57,11.47,27.63,14.78,35.7.33.89.68,1.76,1.07,2.6v0h0a19.13,19.13,0,0,0,6.58,8.1c6.58,4.51,19.41,9.8,27,12.72Z" transform="translate(-9 -122.98)"/><path class="cls-12" d="M174.68,378.74a49,49,0,0,1,97.93,0" transform="translate(-9 -122.98)"/><path class="cls-12" d="M366.82,377.34a49,49,0,0,1,97.93,0" transform="translate(-9 -122.98)"/><path class="cls-13" d="M267.53,382c.08-1.13.14-2.27.14-3.42a44.22,44.22,0,1,0-88.43,0c0,1.15.06,2.29.15,3.42Z" transform="translate(-9 -122.98)"/><polygon class="cls-13" points="471.12 259.02 121.61 259.02 121.61 253.59 473.61 253.59 471.12 259.02"/><circle class="cls-14" cx="214.48" cy="255.26" r="38.04"/><path class="cls-15" d="M223.48,340.21c.82,0,1.61.07,2.42.12a38,38,0,0,0,0,75.84c-.81.05-1.6.12-2.42.12a38,38,0,1,1,0-76.08Z" transform="translate(-9 -122.98)"/><path class="cls-16" d="M223.48,352.44a25.81,25.81,0,1,1-25.81,25.81A25.81,25.81,0,0,1,223.48,352.44Z" transform="translate(-9 -122.98)"/><path class="cls-2" d="M223.48,360a18.25,18.25,0,1,1-18.25,18.25A18.25,18.25,0,0,1,223.48,360Z" transform="translate(-9 -122.98)"/><path class="cls-17" d="M224.78,354.26A25.81,25.81,0,1,1,199,380.07,25.82,25.82,0,0,1,224.78,354.26Z" transform="translate(-9 -122.98)"/><path class="cls-18" d="M198.16,380a25.38,25.38,0,1,0,23.59-27.06A25.41,25.41,0,0,0,198.16,380Zm20.46-8.43a3,3,0,0,1-.27.23l-.14.12a.73.73,0,0,1-.33.23l-13.56-4.52c1.45-3.11,5.07-6.23,5.1-6.26s3.71-3.07,7-4l2.19,14.19Zm-11.06,21.76c-2.5-2.36-4.33-6.76-4.35-6.81s-1.76-4.48-1.6-7.91l14.17,2.35h0s.05.1.12.34l.07.17a.67.67,0,0,1,.12.38Zm25.4,4.82c-3,1.65-7.77,2-7.82,2s-4.81.28-8-.94l6.63-12.72s.07,0,.21,0h.09l.4,0a.62.62,0,0,1,.25,0Zm-1.36-17.78.05-.18a.81.81,0,0,1,.13-.38l13.66-4.22c.63,3.38-.5,8-.51,8.06s-1.23,4.66-3.39,7.33l-10-10.27A2.54,2.54,0,0,1,231.6,380.35Zm9.62-15.26-12.89,6.34s-.09-.05-.29-.2l-.16-.1a.74.74,0,0,1-.32-.24l.25-14.3c3.4.46,7.46,3,7.51,3S239.36,362.21,241.22,365.09Z" transform="translate(-9 -122.98)"/><path class="cls-2" d="M197.67,378.25a25.81,25.81,0,1,0,25.81-25.81A25.82,25.82,0,0,0,197.67,378.25Zm3.94-6.15.52-1.66,14.64,5.05-.32,1.09m2.82-4.35c-.74.67-1.24.39-1.24.39l-14.19-5.81c1.44-3.56,6.22-7.12,6.22-7.12s4.82-3.49,8.65-3.8l1.3,15.28S220.12,371.73,219.27,372.23Zm5.21-16.84-.3,15.59-1.13,0-.31-15.56Zm18.84,11.42-14.19,5.81s-.5.28-1.24-.39c-.86-.5-.74-1.06-.74-1.06l1.3-15.28c3.83.31,8.65,3.8,8.65,3.8S241.88,363.25,243.32,366.81Zm2.24,5.29-14.84,4.48-.31-1.09L245,370.44Zm-5,21.4-9.95-11.67s-.42-.39,0-1.3c.21-1,.78-1,.78-1L246.31,376c.9,3.73-.92,9.4-.92,9.4S243.51,391,240.57,393.5Zm-4.2,3.83-8.88-12.72.93-.63,9.36,12.33Zm-22,1.75,8-13.09s.24-.52,1.24-.42c1-.1,1.23.42,1.23.42l8,13.09c-3.27,2-9.22,2.05-9.22,2.05S217.69,401.09,214.42,399.08Zm-5-2.77L218.79,384l.94.63-8.88,12.72Zm-7.61-10.92s-1.81-5.67-.91-9.4l14.92,3.53s.57.06.78,1c.4.91,0,1.3,0,1.3l-10,11.66C203.71,391,201.82,385.39,201.82,385.39Z" transform="translate(-9 -122.98)"/><path class="cls-19" d="M219.8,378.25a3.69,3.69,0,1,0,3.68-3.69A3.68,3.68,0,0,0,219.8,378.25Z" transform="translate(-9 -122.98)"/><path class="cls-15" d="M220.34,376.35a3.07,3.07,0,0,0-.05.53,3.67,3.67,0,0,0,6.82,1.9,3.67,3.67,0,0,1-7.31-.53A3.63,3.63,0,0,1,220.34,376.35Z" transform="translate(-9 -122.98)"/><path class="cls-13" d="M460.58,382c.08-1.13.14-2.27.14-3.42a44.22,44.22,0,1,0-88.43,0c0,1.15.06,2.29.15,3.42Z" transform="translate(-9 -122.98)"/><circle class="cls-14" cx="407.53" cy="255.26" r="38.04"/><path class="cls-15" d="M416.53,340.21c.82,0,1.61.07,2.42.12a38,38,0,0,0,0,75.84c-.81.05-1.6.12-2.42.12a38,38,0,1,1,0-76.08Z" transform="translate(-9 -122.98)"/><path class="cls-16" d="M416.53,352.44a25.81,25.81,0,1,1-25.81,25.81A25.81,25.81,0,0,1,416.53,352.44Z" transform="translate(-9 -122.98)"/><path class="cls-2" d="M416.53,360a18.25,18.25,0,1,1-18.24,18.25A18.25,18.25,0,0,1,416.53,360Z" transform="translate(-9 -122.98)"/><path class="cls-17" d="M417.83,354.26A25.81,25.81,0,1,1,392,380.07,25.82,25.82,0,0,1,417.83,354.26Z" transform="translate(-9 -122.98)"/><path class="cls-18" d="M391.21,380a25.38,25.38,0,1,0,23.59-27.06A25.41,25.41,0,0,0,391.21,380Zm20.46-8.43a3,3,0,0,1-.27.23l-.14.12a.73.73,0,0,1-.33.23l-13.56-4.52c1.45-3.11,5.07-6.23,5.1-6.26s3.71-3.07,7-4l2.19,14.19Zm-11.06,21.76c-2.5-2.36-4.33-6.76-4.35-6.81s-1.76-4.48-1.6-7.91l14.17,2.35h0s.05.1.12.34l.07.17a.67.67,0,0,1,.12.38Zm25.4,4.82c-3,1.65-7.77,2-7.82,2s-4.81.28-8-.94l6.63-12.72s.08,0,.21,0h.1l.39,0a.62.62,0,0,1,.25,0Zm-1.36-17.78.05-.18a.81.81,0,0,1,.13-.38l13.66-4.22c.63,3.38-.5,8-.51,8.06s-1.22,4.66-3.38,7.33l-10-10.27A2.54,2.54,0,0,1,424.65,380.35Zm9.62-15.26-12.89,6.34s-.09-.05-.29-.2l-.16-.1a.74.74,0,0,1-.32-.24l.25-14.3c3.4.46,7.46,3,7.51,3S432.41,362.21,434.27,365.09Z" transform="translate(-9 -122.98)"/><path class="cls-2" d="M390.72,378.25a25.81,25.81,0,1,0,25.81-25.81A25.82,25.82,0,0,0,390.72,378.25Zm3.94-6.15.52-1.66,14.64,5.05-.32,1.09m2.82-4.35c-.74.67-1.24.39-1.24.39l-14.19-5.81c1.45-3.56,6.22-7.12,6.22-7.12s4.82-3.49,8.65-3.8l1.3,15.28S413.17,371.73,412.32,372.23Zm5.21-16.84-.3,15.59-1.13,0-.31-15.56Zm18.84,11.42-14.19,5.81s-.5.28-1.24-.39c-.86-.5-.74-1.06-.74-1.06l1.3-15.28c3.83.31,8.65,3.8,8.65,3.8S434.93,363.25,436.37,366.81Zm2.24,5.29-14.84,4.48-.31-1.09,14.63-5.05Zm-5,21.4-9.95-11.67s-.42-.39,0-1.3c.21-1,.78-1,.78-1L439.36,376c.9,3.73-.92,9.4-.92,9.4S436.56,391,433.62,393.5Zm-4.2,3.83-8.88-12.72.93-.63,9.36,12.33Zm-21.95,1.75,8-13.09s.23-.52,1.23-.42c1-.1,1.23.42,1.23.42l8,13.09c-3.27,2-9.22,2.05-9.22,2.05S410.75,401.09,407.47,399.08Zm-5-2.77L411.84,384l.94.63-8.88,12.72Zm-7.61-10.92s-1.81-5.67-.91-9.4l14.92,3.53s.57.06.78,1c.4.91,0,1.3,0,1.3l-9.95,11.66C396.76,391,394.87,385.39,394.87,385.39Z" transform="translate(-9 -122.98)"/><path class="cls-19" d="M412.85,378.25a3.69,3.69,0,1,0,3.68-3.69A3.68,3.68,0,0,0,412.85,378.25Z" transform="translate(-9 -122.98)"/><path class="cls-15" d="M413.39,376.35a3.07,3.07,0,0,0-.05.53,3.68,3.68,0,0,0,6.83,1.9,3.68,3.68,0,0,1-7.32-.53A3.63,3.63,0,0,1,413.39,376.35Z" transform="translate(-9 -122.98)"/><path class="cls-12" d="M256.39,294.24s-18.43,16-21.16,36.66" transform="translate(-9 -122.98)"/><path class="cls-12" d="M423.9,301.29s3.88,1.83,8.65,9c2.11,3.18-4.27,19.67-4.27,19.67" transform="translate(-9 -122.98)"/><path class="cls-12" d="M362.31,301.29s-23.84,24.52-23.48,75.29" transform="translate(-9 -122.98)"/><path class="cls-5" d="M257,293.76l58.1-35.65a28.49,28.49,0,0,1,14.81-4h79.62c5.4,0,10.23,2.73,12.05,6.82l14.13,31.73c1.32,3-1.91,8.63-5.83,8.66H259.59C255.38,301.32,253.66,295.82,257,293.76Z" transform="translate(-9 -122.98)"/><path class="cls-20" d="M371.31,286V269.14a8.25,8.25,0,0,1,8.25-8.25h42c-1.82-4.08-6.64-6.81-12-6.81H329.93a28.49,28.49,0,0,0-14.81,4l-3.48,2.13v.65h42.91a8.25,8.25,0,0,1,8.25,8.25V286a8.25,8.25,0,0,1-8.25,8.25H256.39c-2.48,2.32-.72,7.08,3.2,7.05H429.9c3.29,0,6.09-4,6.13-7.05H379.56A8.25,8.25,0,0,1,371.31,286Z" transform="translate(-9 -122.98)"/><path class="cls-21" d="M281.58,293.63s.44-9.37-1.77-9.76-16.77,7-17.22,10.54S281.14,301.83,281.58,293.63Z" transform="translate(-9 -122.98)"/><rect class="cls-22" x="119.59" y="227.48" width="4.05" height="19.07"/><polygon class="cls-23" points="285.11 131.96 214.42 174.69 216.44 174.94 287.95 131.72 285.11 131.96"/><polygon class="cls-23" points="340.8 131.1 311.14 178.3 304.49 178.3 334.14 131.1 340.8 131.1"/><polygon class="cls-23" points="329.8 131.1 300.15 178.3 299.57 178.3 329.22 131.1 329.8 131.1"/><polygon class="cls-23" points="330.72 156.55 316.96 178.44 316.08 178.3 329.79 156.49 330.72 156.55"/><polygon class="cls-23" points="404.72 131.1 375.06 178.3 368.41 178.3 398.06 131.1 404.72 131.1"/><polygon class="cls-23" points="393.72 131.1 364.07 178.3 363.49 178.3 393.14 131.1 393.72 131.1"/><polygon class="cls-23" points="394.64 156.55 380.88 178.44 380 178.3 393.71 156.49 394.64 156.55"/><path class="cls-20" d="M454.71,296.76c-3.07-1.82-17.62-34.8-17.4-36.62.16-1.26,4.66-3.06,7.73-4.27l-4.8-6.57s-12.05,3.91-10.13,8.21c1.58,3.57,11.47,27.63,14.78,35.7.33.89.68,1.76,1.07,2.6v0h0a19.13,19.13,0,0,0,6.58,8.1c6.58,4.51,19.41,9.8,27,12.72L477,308.53C470,306.46,457.43,298.37,454.71,296.76Z" transform="translate(-9 -122.98)"/><path class="cls-24" d="M481.61,344.46h0c-5,.23-12,.81-12.87,1.71-1.42,1.38-5.65,10.49-3.89,12.66,1.34,1.65,14.22.69,20.39.13V344.21Z" transform="translate(-9 -122.98)"/><path class="cls-25" d="M485.24,349.63c-1.57.83-4.27.37-8.47.18-6.26-.3-8.66,4-8.73,4.15a36.43,36.43,0,0,1,2.64-5.64c.83-1.17,10.55-1.24,14.56-1.21C485.23,347.85,485.24,348.69,485.24,349.63Z" transform="translate(-9 -122.98)"/><circle class="cls-26" cx="467.64" cy="214.12" r="5.23"/><path class="cls-27" d="M91.05,211.56a34.2,34.2,0,0,0,44.76-18.65" transform="translate(-9 -122.98)"/><path class="cls-27" d="M128.79,153a34.08,34.08,0,0,0-15.35-7.74" transform="translate(-9 -122.98)"/><path class="cls-27" d="M98.5,146.28a34.22,34.22,0,0,0-27.63,41.49" transform="translate(-9 -122.98)"/><polygon class="cls-28" points="86.39 290.35 103.21 290.35 96.78 62.56 92.82 62.56 86.39 290.35"/><path class="cls-28" d="M91.5,124l1.3,47A3.79,3.79,0,0,0,94,173.59l8.15,7.64a1.1,1.1,0,0,0,1.75-.33l4.88-10.05a3.82,3.82,0,0,0,.16-2.93L93.32,123.61A.94.94,0,0,0,91.5,124Z" transform="translate(-9 -122.98)"/><path class="cls-28" d="M59.25,221.21l39.89-24.82a3.83,3.83,0,0,0,1.71-2.39l2.47-10.89a1.1,1.1,0,0,0-1.16-1.35L91,182.62A3.81,3.81,0,0,0,88.41,184L58,219.8A.94.94,0,0,0,59.25,221.21Z" transform="translate(-9 -122.98)"/><path class="cls-28" d="M158.32,202.82,112.17,194a3.85,3.85,0,0,1-2.45-1.63l-6.22-9.28a1.1,1.1,0,0,1,.61-1.67l10.7-3.19a3.76,3.76,0,0,1,2.92.31l41.21,22.56A.93.93,0,0,1,158.32,202.82Z" transform="translate(-9 -122.98)"/><path class="cls-28" d="M108.89,184.4a5.34,5.34,0,1,0-6.86,3.18A5.34,5.34,0,0,0,108.89,184.4Z" transform="translate(-9 -122.98)"/><path class="cls-29" d="M66,401.2a19.92,19.92,0,0,0,.28-3.29c0-12.46-11.68-22.56-26.08-22.56s-26.07,10.1-26.07,22.56a19.92,19.92,0,0,0,.27,3.29Z" transform="translate(-9 -122.98)"/><path class="cls-30" d="M95.55,395.65a37.14,37.14,0,0,0,.28-4.63c0-17.57-11.67-31.81-26.08-31.81S43.68,373.45,43.68,391a39.17,39.17,0,0,0,.27,4.63Z" transform="translate(-9 -122.98)"/><path class="cls-30" d="M86,415.15a20,20,0,0,1-.28-3.29c0-12.46,11.68-22.56,26.08-22.56s26.07,10.1,26.07,22.56a20,20,0,0,1-.27,3.29Z" transform="translate(-9 -122.98)"/><path class="cls-29" d="M44.27,415.15a31,31,0,0,1-.35-4.64c0-17.57,14.8-31.81,33.06-31.81S110,392.94,110,410.51a31,31,0,0,1-.35,4.64Z" transform="translate(-9 -122.98)"/><path class="cls-31" d="M69.66,378.7A28.47,28.47,0,0,0,47,390.3a37.57,37.57,0,0,0-8.67-1C22.13,389.3,9,399.4,9,411.86a18.06,18.06,0,0,0,.31,3.29H98.68a35.57,35.57,0,0,0,.31-4.64C99,392.94,85.86,378.7,69.66,378.7Z" transform="translate(-9 -122.98)"/><rect class="cls-32" x="150.43" y="293.3" width="318.65" height="4.25"/><rect class="cls-32" x="49.87" y="293.37" width="87.97" height="4.19"/><rect class="cls-32" x="488.65" y="293.37" width="87.97" height="4.19"/><polygon class="cls-33" points="529.43 116.32 517.09 172.19 517.09 293.25 572.05 293.25 572.05 121.75 559.71 116.32 529.43 116.32"/><polygon class="cls-34" points="547.95 292.99 547.45 171.93 517.09 171.93 517.09 292.99 547.95 292.99"/><polygon class="cls-35" points="553.26 293.25 551.89 293.25 551.89 172.05 563.95 118.19 565.26 118.75 553.26 172.34 553.26 293.25"/><rect class="cls-36" x="526.34" y="183.72" width="14.75" height="24.11"/><rect class="cls-36" x="530.14" y="181.34" width="7.14" height="3.79"/><polygon class="cls-37" points="529.43 116.32 535.58 132.46 556.17 132.46 559.71 116.32 529.43 116.32"/><polygon class="cls-34" points="535.58 132.46 530.61 160.94 517.09 172.19 529.43 116.32 535.58 132.46"/><polygon class="cls-2" points="538.4 135.59 534.45 157.19 549.15 157.19 553.67 135.59 538.4 135.59"/><polygon class="cls-37" points="517.09 172.19 547.45 172.19 550.21 159.6 530.84 159.6 517.09 172.19"/><polygon class="cls-9" points="543.66 138.44 547.04 138.44 543.98 145.14 546.35 145.14 543.12 154.33 544.2 147.52 541.08 147.52 543.66 138.44"/><path class="cls-38" d="M556.1,296.13H526.91a.66.66,0,0,1-.55-.38,1.3,1.3,0,0,1-.1-.85l11.86-53.72a.76.76,0,0,1,.66-.67h29.11a.64.64,0,0,1,.55.38,1.3,1.3,0,0,1,.11.85l-11.79,53.72A.76.76,0,0,1,556.1,296.13Zm-28.26-1.9h27.75L567,242.41H539.28Z" transform="translate(-9 -122.98)"/><rect class="cls-35" x="517.09" y="220.03" width="30.56" height="1.9"/><rect class="cls-35" x="517.09" y="174.12" width="30.56" height="1.9"/><rect class="cls-35" x="552.57" y="220.03" width="19.48" height="1.9"/><rect class="cls-2" x="527.39" y="201.17" width="12.81" height="4.46" rx="1.46"/><rect class="cls-2" x="527.39" y="196.08" width="12.81" height="4.46" rx="1.46"/><rect class="cls-39" x="527.39" y="191" width="12.81" height="4.46" rx="1.46"/><rect class="cls-40" x="527.39" y="185.91" width="12.81" height="4.46" rx="1.46"/><circle class="cls-26" cx="532.37" cy="227.16" r="5.23"/><path class="cls-26" d="M486.11,400.62l8.73,2.26A23.13,23.13,0,0,0,523,386.22l6.61-25.52c2.3-8.9,5.57-12,7.91-13a5.41,5.41,0,0,1,4.35-.14l.45-.89a6.53,6.53,0,0,0-5.21.11c-3.7,1.6-6.56,6.2-8.5,13.66L522,386a22.12,22.12,0,0,1-26.87,16l-8.74-2.26a22.13,22.13,0,0,1-15.74-27l6.81-26.32c.08-.28,1.75-6.93-2.64-8.07l-.24,1c3.4.88,1.91,6.8,1.89,6.86l-6.81,26.31A23.13,23.13,0,0,0,486.11,400.62Z" transform="translate(-9 -122.98)"/><path class="cls-41" d="M302.2,444.31" transform="translate(-9 -122.98)"/></svg>