<svg id="Layer_1" data-name="Layer 1" xmlns="http://www.w3.org/2000/svg" viewBox="0 0 1974.77 1612.76"><defs><style>.cls-1{fill:#86b1f2;}.cls-2{fill:#b75742;}.cls-3{fill:#f79c8d;}.cls-4{fill:#f48c7f;}.cls-5{fill:#f7cc7f;}.cls-6{fill:#50bfa5;}.cls-7{fill:#fbb03b;}.cls-8{fill:#13375b;}.cls-9{fill:#f8a492;}.cls-10{fill:#355389;}.cls-11{fill:#184655;}.cls-12{fill:#466eb6;}.cls-13{fill:#f47458;}.cls-14{fill:#b85b4b;}.cls-15{fill:#3c8f7c;}.cls-16{fill:#9bc1f9;}.cls-17{fill:#944537;}.cls-18{fill:#fae0b2;}.cls-19{fill:#b9e6db;}</style></defs><path class="cls-1" d="M1270,1263.78c-19,3.47-94.87,98-94.87,98l-2.67,6.54s137.28-14.18,142.25-19.64C1328.17,1333.91,1285.65,1260.92,1270,1263.78Zm-93.91,100c25-29.76,82.13-73.21,94.47-82.43,11,10.44,27.6,41.25,29.79,55.18C1284.62,1339.52,1216.19,1359.25,1176.13,1363.75Z" transform="translate(-234.49 -200.49)"/><path class="cls-1" d="M1086.14,1279.9c-37.35-22.64-47.6-22.46-58.48-16.72s-51,59.23-33.08,75.92,160.2,28.58,160.2,28.58l3.21-8.09S1123.48,1302.54,1086.14,1279.9Zm-66.84,53.31c-8.29-7.69,12.36-39.72,21.77-46.53,2.4-1.27,98.12,55.33,111.47,74.66C1099.12,1356,1027,1339.59,1019.3,1333.21Z" transform="translate(-234.49 -200.49)"/><path class="cls-1" d="M1155.92,1392.75h8c7.93,0,14.36-6,14.36-13.34v-21.89c0-7.37-6.43-13.34-14.36-13.34h-8c-7.94,0-14.37,6-14.37,13.34v21.89C1141.55,1386.78,1148,1392.75,1155.92,1392.75Z" transform="translate(-234.49 -200.49)"/><path class="cls-2" d="M1459.4,1368.67l-650.82-1.81c-17.32,0-30.6,14.28-28,30.2l10.07,61.72,32.62-.07,19.66,310.57c1.05,16.62,15.85,29.6,33.76,29.6h519.46l21.6-341.31,30.73-.06Z" transform="translate(-234.49 -200.49)"/><path class="cls-3" d="M1407.26,1798.85H1008.54L987.18,1375h473.73L1441,1769.38C1440.21,1785.87,1425.34,1798.85,1407.26,1798.85Z" transform="translate(-234.49 -200.49)"/><path class="cls-4" d="M1480.47,1457.71,966.2,1459l-11.74-92,503.79,1.8c16.55.06,29.5,13.26,28,28.57Z" transform="translate(-234.49 -200.49)"/><polygon class="cls-2" points="731.71 1258.5 1222.22 1257.23 747.27 1281.33 731.71 1258.5"/><rect class="cls-1" x="924.7" y="1167.26" width="13.65" height="90.81"/><rect class="cls-1" x="964.28" y="1257.65" width="17.06" height="341.37"/><rect class="cls-3" x="122.55" y="938.52" width="527.72" height="659.81"/><rect class="cls-5" x="187.15" y="938.52" width="19.11" height="659.81"/><rect class="cls-5" x="243.56" y="938.52" width="19.11" height="659.81"/><rect class="cls-5" x="299.97" y="938.52" width="19.11" height="659.81"/><rect class="cls-5" x="356.39" y="938.52" width="19.11" height="659.81"/><rect class="cls-5" x="412.8" y="938.52" width="19.11" height="659.81"/><rect class="cls-5" x="469.21" y="938.52" width="19.11" height="659.81"/><rect class="cls-5" x="525.62" y="938.52" width="19.11" height="659.81"/><rect class="cls-5" x="582.03" y="938.52" width="19.11" height="659.81"/><rect class="cls-5" x="122.56" y="938.49" width="527.68" height="27.2"/><path class="cls-6" d="M713,913.49c-23.36,5.82-110.46,133.28-110.46,133.28l-2.82,8.64s169.73-27.9,175.49-35.3C790.81,1000.14,732.23,908.71,713,913.49Zm-109.1,135.82c28.86-40.22,96.51-100.39,111.14-113.18,14.52,12.74,37.56,51.43,41.36,69.29C737.05,1010.42,653.43,1040.7,603.94,1049.31Z" transform="translate(-234.49 -200.49)"/><path class="cls-6" d="M485.44,947.15c-48.23-26.68-61-25.74-74.07-17.56s-58.88,80.15-35.26,100.48,201.56,25.81,201.56,25.81L581,1045.2S533.67,973.83,485.44,947.15Zm-79,73.59c-10.92-9.36,12.29-52.23,23.48-61.7,2.89-1.79,126.39,64.73,144.5,88.79C507.5,1044.61,416.52,1028.45,406.41,1020.74Z" transform="translate(-234.49 -200.49)"/><path class="cls-6" d="M581,1088.23l10-.56c9.87-.55,17.41-8.73,16.84-18.26l-1.7-28.3c-.57-9.54-9-16.82-18.91-16.26l-10,.55c-9.87.56-17.41,8.73-16.84,18.27l1.7,28.3C562.7,1081.5,571.16,1088.78,581,1088.23Z" transform="translate(-234.49 -200.49)"/><rect class="cls-7" x="90.15" y="868.86" width="582.38" height="76.89"/><path class="cls-8" d="M1997.87,1052.32c-20.75-15-48.34-13.66-66.22,4.21a52.66,52.66,0,0,0-41.31-.84c-25.55,10.63-45.13,47.17-28.57,70.54,1.9,22.09,8.29,40.17,29.61,43.21,9.6,24.83,48,36.69,73.55,17.91,19,8.84,41.68.25,57.5-13.71,3.73-3.3,7.23-8.79,8.57-9.41,0,0,52.36-2.77,54.15-52.89C2087,1058.88,2037.81,1016.13,1997.87,1052.32Z" transform="translate(-234.49 -200.49)"/><path class="cls-9" d="M1722.08,1646.76a292.61,292.61,0,0,0,.18,45.75c.15,1.19,3.23,6.21,3.41,7.43-9,25.69-29,37-46.88,44.1,6.68-12.38,17.85-25.63,17.67-28.83a402.39,402.39,0,0,0-6-58.33C1703.34,1658.76,1709.84,1652,1722.08,1646.76Z" transform="translate(-234.49 -200.49)"/><path class="cls-10" d="M1826.29,1332.77l71.12,74.67s-45.17,34.28-62.1,47-99.37,55.78-101.13,59c-.36.64,2.57,9.22,2.5,19.43-.21,27.58-3.33,80.88-8.09,126.31-9.72,7.85-28.51,7.58-39.95,9-20-59.18-16-167.26-14.18-180.08C1677.38,1467.19,1826.29,1332.77,1826.29,1332.77Z" transform="translate(-234.49 -200.49)"/><path class="cls-9" d="M2039.91,1502.87c-3.38,1.59-31.81,28.91-44.48,44.5-7-9.5-10-18.79-18.73-26.73,12.44-9.18,38.71-32.66,42.51-39.18,9-15.46,13.49-16.54,13.49-16.54s46.43,39,48.09,45.6S2053.49,1496.47,2039.91,1502.87Z" transform="translate(-234.49 -200.49)"/><path class="cls-11" d="M2017.27,1484.92c-4.13-1.55,7.34-19.39,9.9-23.54,2.87-4.66,6.21-5.12,7-5,2.06.22,53.66,43.54,61,54.84a13.85,13.85,0,0,1,1.18,3.27c1.65,12.77-47.8-3.64-53.14-11C2038.4,1497,2035.85,1491.89,2017.27,1484.92Z" transform="translate(-234.49 -200.49)"/><path class="cls-12" d="M1806.58,1349.13l74-19.72c-.3.09,0,3,0,3.25,2.83,27.56,39.2,22.17,47.15,70.46,5.62,34.11-14.27,143.55-14.27,143.55s35.83-19.62,73.5-40.61c3.43-1.92,24.47,28.63,24.47,28.63-57,72.3-133.21,93.11-141.9,88.3-29.66-16.41-48.82-232.7-48.74-232.67C1816.37,1377,1806.58,1349.13,1806.58,1349.13Z" transform="translate(-234.49 -200.49)"/><path class="cls-9" d="M1943.28,1187s88.28-6,107.77-6.21,89.07-12.91,91.75-13.5,17.65-34.09,21-31-8.51,16.72-4.19,19.55,46.79-8.44,46.53-5.05c-.48,6.34-25.72,7.93-25.41,10.93s26.18-4.18,28.44.65-25.13,4.44-26,6.77,25.74,3.93,23.49,8.84c-1.21,2.66-23.62-2-23.19,1.41s17.05,9.76,15.37,12.68-13.27-7.23-22.5-6.5-16.31-3.66-30.62,1.95-62.47,31.48-94,32.9-101.23,4.74-101.23,4.74Z" transform="translate(-234.49 -200.49)"/><path class="cls-9" d="M1845.32,1164.89s-22-85.7-28-104.26-15.71-88.62-16-91.35,26.82-27.46,22.81-29.62S1811,953,1806.94,949.77s-6.68-47.07-9.82-45.76c-5.87,2.45.56,26.91-2.4,27.57s-4.25-26.18-9.55-26.81,3.69,25.25,1.74,26.81-11.82-23.19-15.77-19.53c-2.14,2,9.34,21.8,5.95,22.47s-14.62-13.13-16.87-10.61,11,10.32,13.23,19.32,8.61,14.33,7.78,29.68-10.28,69.2-1.72,99.59,27.29,97.59,27.29,97.59Z" transform="translate(-234.49 -200.49)"/><path class="cls-13" d="M1806.66,1259.34c.92-15.26,4.59-56.29,5.94-61.21-2.18-16.29-14.87-41.77-17.3-48.81,0,0,25.21-22.59,41.22-20.13,0,0,13.92,24.9,25.62,33.58.19,0,4.2,2.62,6.09,2.87,12.24,1.62,55.16,6.24,62.78,9.84l-14.16,68.37c-2.85,3.63-16.72,82.57-22.36,88.44s-78.57,26-88.9,16.72C1805.18,1348.65,1804.8,1290.2,1806.66,1259.34Z" transform="translate(-234.49 -200.49)"/><path class="cls-13" d="M1909.07,1173.51c2.06-.69,6.71-1.12,13.28-.32,19.43,2.37,52.18,6.12,52.18,6.12s2.17,42.62-5.67,51.7c0,0-52.1.8-51.26,5.37Z" transform="translate(-234.49 -200.49)"/><path class="cls-9" d="M1899.65,1144.13s-7.77,23.32-8.2,32.88-9,39.4-28.09,36.83,1.78-39.2,4.87-48.2,7.53-37.58,7.53-37.58Z" transform="translate(-234.49 -200.49)"/><path class="cls-13" d="M1873.35,1142.38c1.39-7.8,2.41-14.32,2.41-14.32l23.89,16.07s-1.59,4.77-3.37,10.88C1884.73,1155.8,1877.2,1150.32,1873.35,1142.38Z" transform="translate(-234.49 -200.49)"/><path class="cls-9" d="M1918.26,1079.38a33.18,33.18,0,0,1,11,20c1.88,12.92-6.71,44.38-33.32,48.55s-34.12-22.76-26.09-41.86S1892.79,1063.49,1918.26,1079.38Z" transform="translate(-234.49 -200.49)"/><path class="cls-9" d="M1867.69,1098c-.24,5.4,2,9.86,5,10s5.66-4.17,5.9-9.57-2-9.86-5-10S1867.94,1092.58,1867.69,1098Z" transform="translate(-234.49 -200.49)"/><path class="cls-11" d="M1722.29,1693.21c2.63-3.71,15.12,13.74,18.18,17.42,3.44,4.13,2.88,7.6,2.58,8.34-.79,2-54.63,43.2-68.31,47.22a6.68,6.68,0,0,1-4.26-.7c-5.89-4.41,15.78-44.17,26.57-50.27C1704,1711.28,1710.42,1709.92,1722.29,1693.21Z" transform="translate(-234.49 -200.49)"/><path class="cls-8" d="M1915.49,1077.35s-.36,36.38,9.79,44.38,3.31,23.21,3.31,23.21,15.18-35.42,8.09-48.47S1915.49,1077.35,1915.49,1077.35Z" transform="translate(-234.49 -200.49)"/><path class="cls-9" d="M1918,1126c-3.65,4.23-4.41,9.73-1.69,12.27s7.88,1.16,11.52-3.08,4.41-9.73,1.69-12.27S1921.67,1121.71,1918,1126Z" transform="translate(-234.49 -200.49)"/><path class="cls-14" d="M895.55,709.83c-2.41,9.89-6.75,25.52-6.75,25.52.35,4.3,1.61,22.18,3.13,44.1l-32.22-12.89s.39-35.72-1.05-37.9c-1.22-1.85-3.26.46-13.13-13.68-2.85-4.07-3.39-11.36-3.39-11.36s-.58-9,1.43-9.81a4.19,4.19,0,0,1,5,2.06c.73,1.55.54,5.16,1.27,6.71s5.39,3.42,7.36,3.32-.25-26.53-.25-26.53-1.09-7.5-1.65-10c-.47-2.09-2.38-8.22-2.38-8.22s-2.23-8.9.53-9.58c1.63-.4,5.78,6.83,8.62,14.5,3.07,8.27,4.8,17,5.68,16.91,2.06-.28,1-14.77,1-14.77s-2-6.64-2-9.77c-1.94-3.84-3.22-11,.19-11.55.63-.11,5.12,8.93,5.12,8.93s1.76,6.37,2.79,9.35c1.82,5.25,2.09,13.54,3,17.2.79,3,1.5,1.79,1.82,1.92s-.19-4.1-.69-9.86c-.25-2.91.08-6.26-.73-9.57a70.65,70.65,0,0,1-1.38-10.09c-.55-7.5,4.17-6.73,5.8.12.62,2.61,1.28,5.46,1.93,8.35,2.54,11.24,2.46,22.07,3.68,22.16,1.57.12.53-19.6.53-19.6s2.42-10.91,4.81-.78a87.86,87.86,0,0,1,2.46,21.75C895.88,689.68,898,699.94,895.55,709.83Z" transform="translate(-234.49 -200.49)"/><path class="cls-15" d="M893.46,753s-36.3-8.69-36.65-5.78c-7.63,63.86-11,87-12.34,87.62-4.4,2.26-62.72-51.06-73.12-54.68-5-1.73-10.38-1.44-15.57-1.28-12.37.36-14.81.41-14.81.41l-.45,0,.06,11.63c13.94,12.54,45.84,202.45,48.53,202.33,3-.14,66.06,15.72,64.94,10.41-.18-.86-42.75-35.7-54.82-86-4.05-16.88-6.05-35-8.25-51,14,7,68.73,34,77.4,30.39C895.36,886.13,893.46,753,893.46,753Z" transform="translate(-234.49 -200.49)"/><path class="cls-14" d="M1002.05,1090.23s58.66,46,60.62,54.1c2.82,11.73,56.54-3.69,43.58-6.08-3-.55-12.51-3-13.3-3.39-4.19-2.24-56.4-65.15-56.4-65.15Z" transform="translate(-234.49 -200.49)"/><path class="cls-8" d="M1131.45,1138.25l-37.46-3s-10.71,8.86-31.28,9.27a48,48,0,0,0-1.73,20.39c.27,1.9.59,7.62,2.5,7.5,6.92-.48,25.36-5.06,46.37-9.26,0,0,28.23-6,44.54-15.74S1131.45,1138.25,1131.45,1138.25Z" transform="translate(-234.49 -200.49)"/><path class="cls-8" d="M739.18,975s43,7.22,90.48-3.89c55-12.86,115.77-24.76,133.58-14.4,14.34,8.33,103.87,143.62,103.87,143.62l-34.57,25.23L934,1015.12s-125.77,46.41-154,41.27C715.6,1044.67,714.68,993.3,739.18,975Z" transform="translate(-234.49 -200.49)"/><polygon class="cls-8" points="551.66 747.17 594.65 798.25 514.91 822.55 504.69 774.47 551.66 747.17"/><path class="cls-14" d="M877,1179.41s-4.37,69.41-6,81.43,31.86,49.54,27.81,37c-.93-2.88-3.33-12.42-3.34-13.31,0-4.76,11.77-85.7,11.77-85.7Z" transform="translate(-234.49 -200.49)"/><path class="cls-8" d="M919.12,1323.69l-23.43-38.09s-14.53-6.86-24.67-24.76a83.48,83.48,0,0,0-17.12,9.81c-1.54,1.14-12,8.81-11.3,10.58,2.69,6.52,17,20.48,32.6,35.72,0,0,22.15,17.86,38.48,27.57S919.12,1323.69,919.12,1323.69Z" transform="translate(-234.49 -200.49)"/><path class="cls-10" d="M943.14,1041.1c-15-20-136.27-39.06-136.27-39.06l-33.8-65-74.76,46.1s7.47,59.49,13.08,75.38c7.48,21.18,57.72,22.26,88.4,22,28.23-.29,79.81,5.47,79.81,5.47l-17.45,153.87s34.29,7.8,43.92,6.54C907.16,1246.23,961.83,1066,943.14,1041.1Z" transform="translate(-234.49 -200.49)"/><path class="cls-16" d="M740.93,779.45l-42.17,2.36s-1,.29-1.27.35c-3.43.63-.31,123.54,2.75,169.45s9.28,65.19,9.28,65.19,57.21-10.15,74.76-17C791.57,997,809.2,975,809.2,975s-18-24.22-27.09-63.56c-7-30.34-15.63-84.12-20.57-95.35C750.2,790.27,740.93,779.45,740.93,779.45Z" transform="translate(-234.49 -200.49)"/><path class="cls-14" d="M700,744.57l-1.19,37.24s27.3,47,41.32,40.48c11.76-5.5,1.32-41.28,1.32-41.28s-2-8.21-4.86-17.63c-2-6.59-3.62-13.73-3.5-19C733.34,731.69,700,744.57,700,744.57Z" transform="translate(-234.49 -200.49)"/><path class="cls-17" d="M733,744.42c.3-12.73-33.09.15-33.09.15l-.11,3.64a18.64,18.64,0,0,0,3.72,4.23c9,7.29,22,10.57,32.52,9.36C734.31,755.67,732.93,749.24,733,744.42Z" transform="translate(-234.49 -200.49)"/><path class="cls-11" d="M732.57,659.63s13.91,21,14.95,38.62-2.7,29.7-2.7,29.7l-44.64-53.37Z" transform="translate(-234.49 -200.49)"/><path class="cls-17" d="M752.18,700c.62,6.19-1.78,11.49-5.37,11.86s-7-4.35-7.65-10.53,1.78-11.49,5.37-11.85S751.55,693.77,752.18,700Z" transform="translate(-234.49 -200.49)"/><path class="cls-14" d="M685.73,683.13c-1-.22-.92,51.16,14,63.25s40.81,13.16,48.38,1c8.37-13.47.41-67.61-21.74-79.11S685.73,683.13,685.73,683.13Z" transform="translate(-234.49 -200.49)"/><path class="cls-11" d="M682,651.27c-11.37,10-16.88,17.25-24.57,35-9.46,21.79,9.31,44.37,25,53.34s17.05,19.82,17.05,19.82l.65-6.69a16.55,16.55,0,0,0-.21-6.15,28.52,28.52,0,0,0-2.23-5.42c-1.34-2.87-5.65-12.68-7.32-15.27-4.43-6.82-5.3-8.3-3.12-14.79,1.68-5-.26-16,2.34-24.25l21.18-4.56s13.25-3.19,20-10.91C749.94,649.19,711.94,624.46,682,651.27Z" transform="translate(-234.49 -200.49)"/><path class="cls-14" d="M692.29,716.7c2.61,5.64,2.07,11.44-1.21,13s-8.05-1.83-10.66-7.47-2.06-11.43,1.21-13S689.68,711.06,692.29,716.7Z" transform="translate(-234.49 -200.49)"/><path class="cls-14" d="M548,575c2.41,9.89,6.75,25.52,6.75,25.52-.34,4.3-1.61,22.18-3.12,44.1L583.8,631.7s-.38-35.72,1.05-37.9c1.22-1.85,3.26.45,13.14-13.68,2.85-4.08,3.38-11.36,3.38-11.36s.59-9-1.43-9.81a4.19,4.19,0,0,0-5.05,2.06c-.73,1.55-.54,5.16-1.27,6.71s-5.39,3.41-7.35,3.32.24-26.54.24-26.54,1.1-7.49,1.65-10c.48-2.09,2.38-8.22,2.38-8.22s2.24-8.9-.53-9.58c-1.63-.4-5.78,6.83-8.62,14.5-3.06,8.26-4.8,17-5.68,16.91-2.05-.28-1-14.77-1-14.77s2-6.64,2-9.78c1.94-3.83,3.22-11-.18-11.55-.63-.11-5.13,8.94-5.13,8.94s-1.76,6.37-2.79,9.35c-1.81,5.25-2.09,13.54-3,17.2-.78,3-1.5,1.79-1.82,1.92s.19-4.1.69-9.87c.25-2.9-.08-6.25.73-9.56A69.43,69.43,0,0,0,566.58,520c.55-7.5-4.17-6.73-5.8.12-.62,2.61-1.27,5.46-1.93,8.35-2.53,11.24-2.46,22.07-3.67,22.16-1.57.11-.54-19.6-.54-19.6s-2.41-10.91-4.81-.79A88.52,88.52,0,0,0,547.37,552C547.63,554.82,545.55,565.08,548,575Z" transform="translate(-234.49 -200.49)"/><path class="cls-15" d="M698.76,781.81s-41.82-1.95-52.61-6.83c-6.54-3-60.27-46.26-60.27-46.26l.6-115.92-37.78-2.87s-19.6,128.13-12.81,142.15c7,14.49,85.66,74.11,101.39,100,9.06,14.9,28,217.63,30.82,219.45,20.34,10.59,83.19,21.17,81.71,14.75C708.9,908.72,698.76,781.81,698.76,781.81Z" transform="translate(-234.49 -200.49)"/><path class="cls-18" d="M1321,223.06C1185,160.54,986.18,239.47,949.62,319c-18.29,39.75-7.29,88.42,25.27,135L826.57,602.86l197.25-94.8c29.15,25.85,64.95,49.34,105.73,68.1,136,62.52,275.8,48.76,312.37-30.75S1456.92,285.59,1321,223.06Z" transform="translate(-234.49 -200.49)"/><path class="cls-13" d="M1188.67,352.52c-9.66,40.31-40.2,55.24-68.06,48.57-29.34-7-47.2-34.51-38.54-70.67,8.24-34.39,35.54-55.43,68.44-47.54C1183.71,290.83,1196.56,319.61,1188.67,352.52Zm-72.82-15.26c-4.83,20.15-1.49,36.31,11.55,39.44,12.74,3.05,22.1-8.5,27.28-30.14,4.69-19.56,3-36-11-39.29C1130.39,304.07,1120.47,318,1115.85,337.26Zm.21,131.5,141.56-154.43a10.89,10.89,0,0,1,10.59-3.24h0a10.92,10.92,0,0,1,5.5,18L1132,483.36a10.75,10.75,0,0,1-10.46,3.19h0A10.79,10.79,0,0,1,1116.06,468.76Zm192.15-3c-9.66,40.31-40.19,55.25-68.06,48.57-29.05-7-46.91-34.44-38.54-70.67,8.24-34.38,35.54-55.42,68.44-47.54C1303.25,404.11,1316.1,432.89,1308.21,465.79Zm-72.52-15.18c-5.13,20.08-1.79,36.24,11.25,39.36,12.75,3.06,22.1-8.49,27.28-30.13,4.69-19.56,3.27-35.89-10.66-39.23C1249.93,417.35,1240.3,431.34,1235.69,450.61Z" transform="translate(-234.49 -200.49)"/><rect class="cls-19" y="1598.11" width="1970.5" height="14.66" rx="6.16"/></svg>