<svg xmlns="http://www.w3.org/2000/svg" viewBox="0 0 471.76 445.04"><defs><style>.cls-1,.cls-9{fill:#92e3a9;}.cls-10,.cls-11,.cls-12,.cls-18,.cls-2,.cls-5{fill:#fff;}.cls-2{opacity:0.7;}.cls-3{opacity:0.3;}.cls-14,.cls-16,.cls-17,.cls-23,.cls-4{fill:none;}.cls-4{stroke:#000;stroke-miterlimit:10;}.cls-5{opacity:0.6;}.cls-6{fill:#b2b2b2;}.cls-15,.cls-7{fill:#707070;}.cls-10,.cls-12,.cls-14,.cls-16,.cls-17,.cls-18,.cls-19,.cls-20,.cls-21,.cls-22,.cls-7,.cls-8,.cls-9{stroke:#263238;}.cls-10,.cls-12,.cls-14,.cls-16,.cls-17,.cls-18,.cls-19,.cls-20,.cls-21,.cls-22,.cls-23,.cls-7,.cls-8,.cls-9{stroke-linejoin:round;}.cls-13,.cls-19,.cls-8{fill:#263238;}.cls-10,.cls-14,.cls-16,.cls-17,.cls-18,.cls-19,.cls-20,.cls-21,.cls-22,.cls-23,.cls-9{stroke-linecap:round;}.cls-10{opacity:0.5;}.cls-16,.cls-17{stroke-width:2px;}.cls-17{stroke-dasharray:2.99 2.99;}.cls-20{fill:#3590ff;}.cls-21{fill:#b8bcbe;}.cls-22{fill:#666;}.cls-23{stroke:#737373;}</style></defs><g id="Background_Simple" data-name="Background Simple"><path class="cls-1" d="M462,210.74c-.47-18.55-1.6-37-9-55-18.68-45.52-54.45-83.94-96.49-109C320.16,25,266,8.72,226,31c-22.4,12.5-40.51,31.67-60.46,47.51-9,7.12-18.58,14.7-29.4,18.8-13.88,5.27-28.79,4.83-42.58,11-33.19,14.83-65.24,42.11-73.26,79.6-9.61,45,17.72,85.87,28.3,128.33,5.75,23.07,3.6,44-2.21,66.81-4.54,17.78-18.9,42.31-17.39,60.85A79.28,79.28,0,0,0,33,464H464c7.41,0,18.73-52.6,19.78-57.53,5.9-27.67,8.56-56.49,3.88-84.56-3.47-20.8-16.61-38.15-21.3-58.44C462.31,245.94,462.44,228.29,462,210.74Z" transform="translate(-18.29 -20.36)"/><path class="cls-2" d="M462,210.74c-.47-18.55-1.6-37-9-55-18.68-45.52-54.45-83.94-96.49-109C320.16,25,266,8.72,226,31c-22.4,12.5-40.51,31.67-60.46,47.51-9,7.12-18.58,14.7-29.4,18.8-13.88,5.27-28.79,4.83-42.58,11-33.19,14.83-65.24,42.11-73.26,79.6-9.61,45,17.72,85.87,28.3,128.33,5.75,23.07,3.6,44-2.21,66.81-4.54,17.78-18.9,42.31-17.39,60.85A79.28,79.28,0,0,0,33,464H464c7.41,0,18.73-52.6,19.78-57.53,5.9-27.67,8.56-56.49,3.88-84.56-3.47-20.8-16.61-38.15-21.3-58.44C462.31,245.94,462.44,228.29,462,210.74Z" transform="translate(-18.29 -20.36)"/></g><g id="Buildings"><g class="cls-3"><rect class="cls-4" x="181.7" y="283.59" width="8.73" height="8.8"/><rect class="cls-4" x="172.25" y="288.92" width="3.54" height="3.47"/><line class="cls-4" x1="10.5" y1="151.39" x2="10.5" y2="405.54"/><polyline class="cls-4" points="85.41 112.29 72.09 112.29 72.09 104.47 32.01 104.47 32.01 112.81 10.5 112.81 10.5 144.25"/><polyline class="cls-4" points="425.32 312.82 425.32 373.2 404.97 373.2 404.97 150.34 335.21 150.34 335.21 318.88 309.7 318.88 309.7 300.22 316.38 300.22 316.38 292.33 260.6 292.33 260.6 179.26 264.21 179.26 264.21 173.34 196.5 173.34 196.5 179.26 201.35 179.26 201.35 292.52 147.84 292.52 147.84 373.52 119.74 373.52 119.74 125.97 101.41 125.97 101.41 112.29 91.45 112.29"/><polyline class="cls-4" points="464.9 262.09 422.63 262.09 422.63 269.32 425.32 269.32 425.32 306.78"/><rect class="cls-4" x="332.1" y="147.9" width="75.65" height="2.42"/><rect class="cls-4" x="207.41" y="185.84" width="8.52" height="9.12"/><rect class="cls-4" x="219.91" y="185.84" width="8.52" height="9.12"/><rect class="cls-4" x="232.41" y="185.84" width="8.52" height="9.12"/><rect class="cls-4" x="244.91" y="185.84" width="8.52" height="9.12"/><rect class="cls-4" x="207.41" y="200.3" width="8.52" height="9.12"/><rect class="cls-4" x="219.91" y="200.3" width="8.52" height="9.12"/><rect class="cls-4" x="232.41" y="200.3" width="8.52" height="9.12"/><rect class="cls-4" x="244.91" y="200.3" width="8.52" height="9.12"/><rect class="cls-4" x="207.41" y="214.76" width="8.52" height="9.12"/><rect class="cls-4" x="219.91" y="214.76" width="8.52" height="9.12"/><rect class="cls-4" x="232.41" y="214.76" width="8.52" height="9.12"/><rect class="cls-4" x="244.91" y="214.76" width="8.52" height="9.12"/><rect class="cls-4" x="207.41" y="229.22" width="8.52" height="9.12"/><rect class="cls-4" x="219.91" y="229.22" width="8.52" height="9.12"/><rect class="cls-4" x="232.41" y="229.22" width="8.52" height="9.12"/><rect class="cls-4" x="244.91" y="229.22" width="8.52" height="9.12"/><rect class="cls-4" x="207.41" y="243.68" width="8.52" height="9.12"/><rect class="cls-4" x="219.91" y="243.68" width="8.52" height="9.12"/><rect class="cls-4" x="232.41" y="243.68" width="8.52" height="9.12"/><rect class="cls-4" x="244.91" y="243.68" width="8.52" height="9.12"/><rect class="cls-4" x="207.41" y="258.15" width="8.52" height="9.12"/><rect class="cls-4" x="219.91" y="258.15" width="8.52" height="9.12"/><rect class="cls-4" x="232.41" y="258.15" width="8.52" height="9.12"/><rect class="cls-4" x="244.91" y="258.15" width="8.52" height="9.12"/><rect class="cls-4" x="207.41" y="272.61" width="8.52" height="9.12"/><rect class="cls-4" x="219.91" y="272.61" width="8.52" height="9.12"/><rect class="cls-4" x="232.41" y="272.61" width="8.52" height="9.12"/><rect class="cls-4" x="244.91" y="272.61" width="8.52" height="9.12"/><rect class="cls-4" x="207.41" y="287.07" width="8.52" height="9.12"/><rect class="cls-4" x="219.91" y="287.07" width="8.52" height="9.12"/><rect class="cls-4" x="232.41" y="287.07" width="8.52" height="9.12"/><rect class="cls-4" x="244.91" y="287.07" width="8.52" height="9.12"/><rect class="cls-4" x="207.41" y="300.3" width="8.52" height="9.12"/><rect class="cls-4" x="219.91" y="300.3" width="8.52" height="9.12"/><rect class="cls-4" x="232.41" y="300.3" width="8.52" height="9.12"/><rect class="cls-4" x="244.91" y="300.3" width="8.52" height="9.12"/><rect class="cls-4" x="207.41" y="314.76" width="8.52" height="9.12"/><rect class="cls-4" x="219.91" y="314.76" width="8.52" height="9.12"/><rect class="cls-4" x="232.41" y="314.76" width="8.52" height="9.12"/><rect class="cls-4" x="244.91" y="314.76" width="8.52" height="9.12"/><rect class="cls-4" x="207.41" y="329.22" width="8.52" height="9.12"/><rect class="cls-4" x="219.91" y="329.22" width="8.52" height="9.12"/><rect class="cls-4" x="232.41" y="329.22" width="8.52" height="9.12"/><rect class="cls-4" x="244.91" y="329.22" width="8.52" height="9.12"/><rect class="cls-4" x="207.41" y="343.69" width="8.52" height="9.12"/><rect class="cls-4" x="219.91" y="343.69" width="8.52" height="9.12"/><rect class="cls-4" x="232.41" y="343.69" width="8.52" height="9.12"/><rect class="cls-4" x="244.91" y="343.69" width="8.52" height="9.12"/><rect class="cls-4" x="207.41" y="358.15" width="8.52" height="9.12"/><rect class="cls-4" x="219.91" y="358.15" width="8.52" height="9.12"/><rect class="cls-4" x="232.41" y="358.15" width="8.52" height="9.12"/><rect class="cls-4" x="244.91" y="358.15" width="8.52" height="9.12"/><rect class="cls-4" x="207.41" y="372.61" width="8.52" height="9.12"/><rect class="cls-4" x="219.91" y="372.61" width="8.52" height="9.12"/><rect class="cls-4" x="232.41" y="372.61" width="8.52" height="9.12"/><rect class="cls-4" x="244.91" y="372.61" width="8.52" height="9.12"/><rect class="cls-4" x="256.23" y="300.3" width="8.52" height="9.12"/><rect class="cls-4" x="268.73" y="300.3" width="8.52" height="9.12"/><rect class="cls-4" x="281.22" y="300.3" width="8.52" height="9.12"/><rect class="cls-4" x="293.72" y="300.3" width="8.52" height="9.12"/><rect class="cls-4" x="256.23" y="314.76" width="8.52" height="9.12"/><rect class="cls-4" x="268.73" y="314.76" width="8.52" height="9.12"/><rect class="cls-4" x="281.22" y="314.76" width="8.52" height="9.12"/><rect class="cls-4" x="293.72" y="314.76" width="8.52" height="9.12"/><rect class="cls-4" x="256.23" y="329.22" width="8.52" height="9.12"/><rect class="cls-4" x="268.73" y="329.22" width="8.52" height="9.12"/><rect class="cls-4" x="281.22" y="329.22" width="8.52" height="9.12"/><rect class="cls-4" x="293.72" y="329.22" width="8.52" height="9.12"/><rect class="cls-4" x="256.23" y="343.69" width="8.52" height="9.12"/><rect class="cls-4" x="268.73" y="343.69" width="8.52" height="9.12"/><rect class="cls-4" x="281.22" y="343.69" width="8.52" height="9.12"/><rect class="cls-4" x="293.72" y="343.69" width="8.52" height="9.12"/><rect class="cls-4" x="256.23" y="358.15" width="8.52" height="9.12"/><rect class="cls-4" x="268.73" y="358.15" width="8.52" height="9.12"/><rect class="cls-4" x="281.22" y="358.15" width="8.52" height="9.12"/><rect class="cls-4" x="293.72" y="358.15" width="8.52" height="9.12"/><rect class="cls-4" x="256.23" y="372.61" width="8.52" height="9.12"/><rect class="cls-4" x="268.73" y="372.61" width="8.52" height="9.12"/><rect class="cls-4" x="281.22" y="372.61" width="8.52" height="9.12"/><rect class="cls-4" x="293.72" y="372.61" width="8.52" height="9.12"/><rect class="cls-4" x="157.91" y="300.3" width="8.52" height="9.12"/><rect class="cls-4" x="170.41" y="300.3" width="8.52" height="9.12"/><rect class="cls-4" x="182.91" y="300.3" width="8.52" height="9.12"/><rect class="cls-4" x="195.4" y="300.3" width="8.52" height="9.12"/><rect class="cls-4" x="157.91" y="314.76" width="8.52" height="9.12"/><rect class="cls-4" x="170.41" y="314.76" width="8.52" height="9.12"/><rect class="cls-4" x="182.91" y="314.76" width="8.52" height="9.12"/><rect class="cls-4" x="195.4" y="314.76" width="8.52" height="9.12"/><rect class="cls-4" x="157.91" y="329.22" width="8.52" height="9.12"/><rect class="cls-4" x="170.41" y="329.22" width="8.52" height="9.12"/><rect class="cls-4" x="182.91" y="329.22" width="8.52" height="9.12"/><rect class="cls-4" x="195.4" y="329.22" width="8.52" height="9.12"/><rect class="cls-4" x="157.91" y="343.69" width="8.52" height="9.12"/><rect class="cls-4" x="170.41" y="343.69" width="8.52" height="9.12"/><rect class="cls-4" x="182.91" y="343.69" width="8.52" height="9.12"/><rect class="cls-4" x="195.4" y="343.69" width="8.52" height="9.12"/><rect class="cls-4" x="157.91" y="358.15" width="8.52" height="9.12"/><rect class="cls-4" x="170.41" y="358.15" width="8.52" height="9.12"/><rect class="cls-4" x="182.91" y="358.15" width="8.52" height="9.12"/><rect class="cls-4" x="195.4" y="358.15" width="8.52" height="9.12"/><rect class="cls-4" x="157.91" y="372.61" width="8.52" height="9.12"/><rect class="cls-4" x="170.41" y="372.61" width="8.52" height="9.12"/><rect class="cls-4" x="182.91" y="372.61" width="8.52" height="9.12"/><rect class="cls-4" x="195.4" y="372.61" width="8.52" height="9.12"/><rect class="cls-4" x="437.1" y="271.95" width="8.52" height="9.12"/><rect class="cls-4" x="449.6" y="271.95" width="8.52" height="9.12"/><rect class="cls-4" x="437.1" y="286.41" width="8.52" height="9.12"/><rect class="cls-4" x="449.6" y="286.41" width="8.52" height="9.12"/><rect class="cls-4" x="437.1" y="300.88" width="8.52" height="9.12"/><rect class="cls-4" x="449.6" y="300.88" width="8.52" height="9.12"/><rect class="cls-4" x="437.1" y="315.34" width="8.52" height="9.12"/><rect class="cls-4" x="449.6" y="315.34" width="8.52" height="9.12"/><rect class="cls-4" x="437.1" y="329.8" width="8.52" height="9.12"/><rect class="cls-4" x="449.6" y="329.8" width="8.52" height="9.12"/><rect class="cls-4" x="437.1" y="344.26" width="8.52" height="9.12"/><rect class="cls-4" x="449.6" y="344.26" width="8.52" height="9.12"/><rect class="cls-4" x="437.1" y="358.72" width="8.52" height="9.12"/><rect class="cls-4" x="449.6" y="358.72" width="8.52" height="9.12"/><rect class="cls-4" x="437.1" y="373.19" width="8.52" height="9.12"/><rect class="cls-4" x="449.6" y="373.19" width="8.52" height="9.12"/><line class="cls-4" x1="341.78" y1="155.6" x2="341.78" y2="388.58"/><line class="cls-4" x1="350.23" y1="336.98" x2="350.23" y2="388.58"/><line class="cls-4" x1="350.23" y1="227.16" x2="350.23" y2="331.49"/><line class="cls-4" x1="350.23" y1="155.6" x2="350.23" y2="220.57"/><line class="cls-4" x1="358.68" y1="155.6" x2="358.68" y2="388.58"/><line class="cls-4" x1="367.13" y1="210.69" x2="367.13" y2="388.58"/><line class="cls-4" x1="367.13" y1="155.6" x2="367.13" y2="204.1"/><line class="cls-4" x1="375.59" y1="155.6" x2="375.59" y2="388.58"/><line class="cls-4" x1="384.04" y1="267.79" x2="384.04" y2="388.58"/><line class="cls-4" x1="384.04" y1="155.6" x2="384.04" y2="259.56"/><line class="cls-4" x1="392.49" y1="155.6" x2="392.49" y2="388.58"/><line class="cls-4" x1="400.94" y1="155.6" x2="400.94" y2="388.58"/><line class="cls-4" x1="10.99" y1="130.37" x2="119.49" y2="130.37"/><line class="cls-4" x1="19.79" y1="295.8" x2="19.79" y2="406.52"/><line class="cls-4" x1="19.79" y1="136.24" x2="19.79" y2="287.56"/><line class="cls-4" x1="24.68" y1="208.49" x2="24.68" y2="406.52"/><line class="cls-4" x1="24.68" y1="136.24" x2="24.68" y2="201.9"/><line class="cls-4" x1="39.34" y1="136.24" x2="39.34" y2="406.52"/><line class="cls-4" x1="44.23" y1="136.24" x2="44.23" y2="406.52"/><line class="cls-4" x1="58.89" y1="136.24" x2="58.89" y2="406.52"/><line class="cls-4" x1="63.78" y1="177.19" x2="63.78" y2="406.52"/><line class="cls-4" x1="63.78" y1="136.24" x2="63.78" y2="168.96"/><line class="cls-4" x1="78.44" y1="136.24" x2="78.44" y2="406.52"/><line class="cls-4" x1="83.33" y1="394.63" x2="83.33" y2="406.52"/><line class="cls-4" x1="83.33" y1="136.24" x2="83.33" y2="385.85"/><line class="cls-4" x1="97.99" y1="136.24" x2="97.99" y2="406.52"/><line class="cls-4" x1="102.88" y1="136.24" x2="102.88" y2="406.52"/></g></g><g id="Trees"><path class="cls-1" d="M80.41,375.27c0,17.05-11.71,23.62-26.16,23.62s-26.16-6.57-26.16-23.62S39.8,320,54.25,320,80.41,358.23,80.41,375.27Z" transform="translate(-18.29 -20.36)"/><path class="cls-5" d="M80.41,375.27c0,17.05-11.71,23.62-26.16,23.62s-26.16-6.57-26.16-23.62S39.8,320,54.25,320,80.41,358.23,80.41,375.27Z" transform="translate(-18.29 -20.36)"/><polygon class="cls-6" points="25.42 358.96 33.26 362.55 31.77 444.54 37.41 444.54 36.36 369.33 46.64 363.74 51.87 366.34 48.23 363.14 53.55 359.36 40.09 365.54 42.02 361.55 38.1 365.94 36.51 366.14 36.24 362.15 51.1 344.2 43.84 350.98 44.68 341.81 48.7 331.44 44.26 340.21 44.09 330.04 42.45 351.38 39.32 355.57 38.84 350.18 37.15 356.76 35.8 359.56 36.64 337.82 41.28 329.24 36.38 334.23 35.41 324.06 34.52 342.4 24.53 329.44 33.95 344.2 33.87 351.38 27.03 347.79 27.53 342.01 25.82 346.99 18.98 343.2 33.71 353.77 33.42 360.15 15.37 353.97 24.02 358.36 14.5 361.95 25.42 358.96"/><path class="cls-1" d="M213.13,413.27c0,17.05-11.71,23.62-26.16,23.62s-26.16-6.57-26.16-23.62S172.52,358,187,358,213.13,396.23,213.13,413.27Z" transform="translate(-18.29 -20.36)"/><path class="cls-5" d="M213.13,413.27c0,17.05-11.71,23.62-26.16,23.62s-26.16-6.57-26.16-23.62S172.52,358,187,358,213.13,396.23,213.13,413.27Z" transform="translate(-18.29 -20.36)"/><polygon class="cls-6" points="158.14 396.96 165.98 400.55 165.19 444.08 169.59 444.08 169.08 407.33 179.36 401.74 184.59 404.34 180.95 401.14 186.27 397.36 172.81 403.54 174.74 399.55 170.82 403.94 169.23 404.14 168.96 400.15 183.82 382.2 176.56 388.98 177.4 379.81 181.42 369.44 176.97 378.21 176.81 368.04 175.17 389.38 172.04 393.57 171.56 388.18 169.87 394.76 168.52 397.56 169.36 375.82 174 367.24 169.1 372.23 168.13 362.06 167.24 380.4 157.25 367.44 166.67 382.2 166.59 389.38 159.75 385.79 160.25 380.01 158.54 384.99 151.7 381.2 166.43 391.77 166.14 398.15 148.09 391.97 156.74 396.36 147.22 399.95 158.14 396.96"/><path class="cls-1" d="M436.41,375.27c0,17.05-11.71,23.62-26.16,23.62s-26.16-6.57-26.16-23.62S395.8,320,410.25,320,436.41,358.23,436.41,375.27Z" transform="translate(-18.29 -20.36)"/><path class="cls-5" d="M436.41,375.27c0,17.05-11.71,23.62-26.16,23.62s-26.16-6.57-26.16-23.62S395.8,320,410.25,320,436.41,358.23,436.41,375.27Z" transform="translate(-18.29 -20.36)"/><polygon class="cls-6" points="381.42 358.96 389.26 362.55 387.77 444.54 393.41 444.54 392.36 369.33 402.64 363.74 407.87 366.34 404.23 363.14 409.55 359.36 396.09 365.54 398.02 361.55 394.1 365.94 392.51 366.14 392.24 362.15 407.1 344.2 399.83 350.98 400.68 341.81 404.7 331.44 400.25 340.21 400.09 330.04 398.45 351.38 395.32 355.57 394.84 350.18 393.15 356.76 391.8 359.56 392.64 337.82 397.28 329.24 392.38 334.23 391.41 324.06 390.52 342.4 380.53 329.44 389.95 344.2 389.87 351.38 383.03 347.79 383.53 342.01 381.82 346.99 374.98 343.2 389.71 353.77 389.42 360.15 371.37 353.97 380.01 358.36 370.5 361.95 381.42 358.96"/></g><g id="Clouds"><g class="cls-3"><path class="cls-4" d="M457.41,96.49c-3.62-2-5.26-.33-6.58-2s3.62-5.93-6.25-10.21c0,0-.66-9.21-14.16-9.54S420.55,84,416.93,86.29s-4.61-1.32-8.23,1-2,6.91-4.94,7.57-6.91-3-10.53-.66-3.62,4.28-5.27,4.28-4.94-1.32-6.91,0-4.28,3-4.28,3h83.28S461,98.47,457.41,96.49Z" transform="translate(-18.29 -20.36)"/><path class="cls-4" d="M106.11,94.54c-2.6-1.42-3.78-.24-4.73-1.42s2.6-4.26-4.49-7.33c0,0-.47-6.62-10.16-6.85S79.64,85.56,77,87.21s-3.31-.95-5.91.71-1.42,5-3.54,5.44-5-2.13-7.57-.48S57.42,96,56.24,96s-3.54-.94-5,0-3.08,2.13-3.08,2.13H108S108.71,96,106.11,94.54Z" transform="translate(-18.29 -20.36)"/><path class="cls-4" d="M407.42,82.88c-2.26-1.23-3.28-.21-4.11-1.23s2.26-3.7-3.9-6.37c0,0-.41-5.75-8.83-6s-6.17,5.75-8.43,7.19-2.87-.82-5.13.62-1.24,4.31-3.09,4.72-4.31-1.85-6.57-.41-2.26,2.67-3.29,2.67-3.08-.82-4.31,0S357.09,86,357.09,86h52S409.68,84.11,407.42,82.88Z" transform="translate(-18.29 -20.36)"/></g></g><g id="Device"><path class="cls-7" d="M362.73,153v-36.5h-3.3V69.75A28.81,28.81,0,0,0,330.62,41H175.9a28.81,28.81,0,0,0-28.81,28.8V384.14A28.81,28.81,0,0,0,175.9,413H330.62a28.81,28.81,0,0,0,28.81-28.81v-200h3.3V162.53h-3.3V153Z" transform="translate(-18.29 -20.36)"/><rect class="cls-8" x="132.14" y="24.56" width="205.67" height="364.06" rx="30.52"/><path class="cls-9" d="M321.57,47.53H264.45l-.06.21c-1.69,6.09-5.58,10-9.89,10H252c-4.31,0-8.2-4-9.89-10l-.06-.21H185a28.8,28.8,0,0,0-28.8,28.81V363.57a28.79,28.79,0,0,0,28.8,28.8H321.57a28.8,28.8,0,0,0,28.81-28.8V76.34A28.81,28.81,0,0,0,321.57,47.53Z" transform="translate(-18.29 -20.36)"/><path class="cls-10" d="M321.57,47.53H264.45l-.06.21c-1.69,6.09-5.58,10-9.89,10H252c-4.31,0-8.2-4-9.89-10l-.06-.21H185a28.8,28.8,0,0,0-28.8,28.81V363.57a28.79,28.79,0,0,0,28.8,28.8H321.57a28.8,28.8,0,0,0,28.81-28.8V76.34A28.81,28.81,0,0,0,321.57,47.53Z" transform="translate(-18.29 -20.36)"/><polygon class="cls-1" points="160.69 107.85 145.37 86.69 143.18 131.93 156.31 137.04 160.69 107.85"/><polygon class="cls-1" points="195.71 147.98 165.07 111.5 161.35 141.87 195.13 159.29 195.71 147.98"/><path class="cls-1" d="M350.38,120.77V76.34a28.81,28.81,0,0,0-18.74-27L296.88,89.48a10.63,10.63,0,0,0,1.13,15l29.59,25.3a10.63,10.63,0,0,0,14.47-.62Z" transform="translate(-18.29 -20.36)"/><polygon class="cls-1" points="193.79 185.45 157.86 170.27 155.59 188.84 192.8 204.89 193.79 185.45"/><polygon class="cls-1" points="158.66 163.73 194.08 179.92 194.84 164.94 160.71 147.08 158.66 163.73"/><polygon class="cls-1" points="223.44 281.5 296.4 280.05 271.6 247.94 223.44 281.5"/><path class="cls-11" d="M303.47,246a21.81,21.81,0,1,0,21.8-21.8A21.83,21.83,0,0,0,303.47,246Zm41.59,0a19.79,19.79,0,1,1-19.79-19.78A19.82,19.82,0,0,1,345.06,246Z" transform="translate(-18.29 -20.36)"/><path class="cls-11" d="M350.38,193.33l-52.72,30.24-28.72-28.72,22.47-1.42h0a1,1,0,0,0,.61-.25l58.36-52.37v-2.72l-19,17.06-61.11-49.47,47.22-58.14h-2.61L247.58,130.4l-75.18-80c-.63.3-1.24.63-1.85,1L246.29,132l-5.92,7.29L207,105.33a16,16,0,0,0-21.74-1l-9,7.67L156.15,88.23v3.13l62.76,74.4a1.14,1.14,0,0,0-.08.33l-4.34,70.19-20,6.05v0a1.06,1.06,0,0,0-.36-.4l-38-24.59v2.41l36,23.31-36,10.88V256l37.29-11.27,11.83,23.65-49.12,22.71v2.23l50-23.13,16.23,32.46-66.25,51.25v2.56l135.34-104.7,58.89,69.8v-3.14L280.56,235.7l69.82-40Zm-20.54-36.82L312.5,172.07,287,148.59l14.43-15.12ZM269,107.24l30.82,25-15,15.75a1,1,0,0,0,0,1.44L311,173.43,291.39,191l-49.59-50.3Zm-28.47,35.05,48.55,49.26-43.43,2.76L221.51,165.7Zm-63-28.71,9-7.67a14,14,0,0,1,19,.83l33.55,34.1-18.91,23.29Zm43.21,54.35,44.68,53-48.87,14.77Zm46.08,54.62,10.57,12.52L230.6,256.7l-13.44-19.11,49.67-15ZM195.4,244.16l19.73-6,13.61,19.36-21.64,10ZM224,301.42l-16-32.05,21.91-10.13,17.13,24.37Zm66.15-51.18-41.53,32.13-16.87-24,47-21.71Zm-10.94-16.11-32-37.9L266.89,195l-.34.34,29.29,29.29Z" transform="translate(-18.29 -20.36)"/><path class="cls-11" d="M316.6,246a8.67,8.67,0,1,0,8.67-8.67A8.68,8.68,0,0,0,316.6,246Zm15.32,0a6.65,6.65,0,1,1-6.65-6.65A6.66,6.66,0,0,1,331.92,246Z" transform="translate(-18.29 -20.36)"/><path class="cls-12" d="M156.15,293.11v70.46a28.79,28.79,0,0,0,28.8,28.8H321.57a28.8,28.8,0,0,0,28.81-28.8V293.11Z" transform="translate(-18.29 -20.36)"/><path class="cls-13" d="M343.86,315.05c0-.09,0-.17-.05-.24a2,2,0,0,0-.62-1.22,4,4,0,0,1-.67-1.09l0-.11,0-.06v-.16l0-.09v0l0-.09v-.05l0-.09v-.06l0-.09v-.15l0-.08v-.15l0-.08v-.41s0-.05,0-.07v-.13a.45.45,0,0,0-.12-.34.45.45,0,0,0-.32-.11,1.58,1.58,0,0,0-.3,0,1.75,1.75,0,0,0-.73-.93l-.47-.22a16.21,16.21,0,0,1-1.71-.87c-.49-.28-1.22-.75-2-1.24-1.14-.73-2.32-1.48-2.82-1.71a3.83,3.83,0,0,1-.48-.28c-.85-.55-2.44-1.57-7.11-1.85-4-.24-9.88-.26-9.93-.26a41.06,41.06,0,0,0-4.25.13l-.68.05a19.6,19.6,0,0,0-4.18.67c-1.59.4-10.15,4.13-10.49,4.28s-8.12,2.27-9,2.93a2.59,2.59,0,0,0-.77,1,2,2,0,0,0-.3.95c-.27.2-1.09.87-1,1.32a4.78,4.78,0,0,1,.07.71v5.77a.13.13,0,0,0,.13.13h.9l.06,0,.59-.34h1.32c.53,1.76,1.82,3,3.31,3h2.71a3.72,3.72,0,0,0,3.27-2.86l.44.2h5.83a3.64,3.64,0,0,0,3.19,2.65h2.71c1.55,0,2.86-1.33,3.37-3.18h7c.48,1.84,1.78,3.18,3.32,3.18h2.1c1.25,0,2.3-1.34,2.69-3.18h3.09c.48,1.84,1.78,3.18,3.31,3.18h2.11c1.24,0,2.3-1.34,2.69-3.18h2.76l.07,0a1,1,0,0,0,.22-1.31A22.42,22.42,0,0,0,343.86,315.05Z" transform="translate(-18.29 -20.36)"/><path class="cls-11" d="M317.59,306.1a39.63,39.63,0,0,0-3.9,2.82,9.78,9.78,0,0,0,2.88.52h17.94a8.58,8.58,0,0,0,2.5-.84c.32-.38-4.49-3.39-6.22-4s-5.1-.54-8.52-.26A10.45,10.45,0,0,0,317.59,306.1Z" transform="translate(-18.29 -20.36)"/><path class="cls-11" d="M297.36,308.15h12.22a5.9,5.9,0,0,0,3.27-.83c1.48-1,2.37-1.29,3.72-2.12s1.86-1.09,1.86-1.09-4.55-.38-7.18-.38a15.89,15.89,0,0,0-3.78.32Z" transform="translate(-18.29 -20.36)"/><path class="cls-13" d="M204,308c0,4.71-5.28,6.4-5.3,10v.25h5.13v1.58H197v-1.34c0-5,5.28-6,5.28-10.4,0-1.6-.54-2.45-1.83-2.45s-1.83.91-1.83,2.29v1.39H197V308c0-2.39,1.09-4,3.49-4S204,305.57,204,308Z" transform="translate(-18.29 -20.36)"/><path class="cls-13" d="M214.83,319.74h-1.67l-2.58-12.41v12.43h-1.52V304.17h2.43l2.56,12.45,2.47-12.45H219v15.59H217.3V307.22Z" transform="translate(-18.29 -20.36)"/><path class="cls-13" d="M222.47,304.17v15.59h-1.73V304.17Z" transform="translate(-18.29 -20.36)"/><path class="cls-13" d="M225.79,319.76h-1.56V304.17h2.21l3.61,11.27V304.17h1.54v15.59h-1.81l-4-12.61Z" transform="translate(-18.29 -20.36)"/><path class="cls-12" d="M188.08,312.08a10.2,10.2,0,1,1-3.42-7.63A10.21,10.21,0,0,1,188.08,312.08Z" transform="translate(-18.29 -20.36)"/><path class="cls-13" d="M184.66,304.45l-6.79,7.63V301.87A10.12,10.12,0,0,1,184.66,304.45Z" transform="translate(-18.29 -20.36)"/><line class="cls-14" x1="151.12" y1="315.23" x2="231.28" y2="315.23"/><line class="cls-14" x1="151.12" y1="321.96" x2="231.28" y2="321.96"/><line class="cls-14" x1="151.12" y1="328.7" x2="231.28" y2="328.7"/><path class="cls-12" d="M321.57,47.53H264.45l-.06.21c-1.69,6.09-5.58,10-9.89,10H252c-4.31,0-8.2-4-9.89-10l-.06-.21H185a28.8,28.8,0,0,0-28.8,28.81v5.17H350.38V76.34A28.81,28.81,0,0,0,321.57,47.53Z" transform="translate(-18.29 -20.36)"/><circle class="cls-15" cx="234.38" cy="28.56" r="2.7"/><path class="cls-13" d="M173.41,59.28c0,2.73-3.08,3.72-3.09,5.81v.14h3v.92h-4v-.78c0-2.93,3.08-3.5,3.08-6.05,0-.94-.32-1.43-1.07-1.43s-1.06.53-1.06,1.34V60h-1v-.74c0-1.39.64-2.31,2-2.31S173.41,57.89,173.41,59.28Z" transform="translate(-18.29 -20.36)"/><path class="cls-13" d="M178.37,59.26v.24a1.79,1.79,0,0,1-1.1,1.86,1.81,1.81,0,0,1,1.1,1.88V64c0,1.38-.64,2.29-2.05,2.29s-2-.91-2-2.29v-.63h1V64c0,.82.33,1.31,1.06,1.31s1.06-.48,1.06-1.4v-.7c0-.9-.37-1.32-1.14-1.35h-.54V61h.59a1.08,1.08,0,0,0,1.09-1.24V59.3c0-.93-.32-1.41-1.06-1.41s-1.06.51-1.06,1.32v.47h-1v-.42c0-1.38.65-2.28,2-2.28S178.37,57.88,178.37,59.26Z" transform="translate(-18.29 -20.36)"/><path class="cls-13" d="M180.33,60v1.26h-1V60Zm0,4.94v1.26h-1V64.89Z" transform="translate(-18.29 -20.36)"/><path class="cls-13" d="M182.38,60.77a1.47,1.47,0,0,1,1.35-.75c1.17,0,1.69.85,1.69,2.15V64c0,1.38-.66,2.29-2,2.29s-2-.91-2-2.29v-.61h.95V64c0,.82.34,1.31,1.06,1.31s1.07-.49,1.07-1.31V62.25c0-.82-.34-1.31-1.07-1.31a1,1,0,0,0-1,1v.21h-.95l.25-5h3.58V58h-2.68Z" transform="translate(-18.29 -20.36)"/><path class="cls-13" d="M190.46,59.25v.17h-.94v-.23c0-.82-.34-1.3-1.08-1.3s-1.1.49-1.1,1.47v2a1.46,1.46,0,0,1,1.46-1c1.17,0,1.69.84,1.69,2.15V64c0,1.38-.69,2.29-2.08,2.29s-2.09-.91-2.09-2.29V59.32c0-1.44.65-2.34,2.09-2.34S190.46,57.86,190.46,59.25Zm-3.12,3.4V64c0,.82.33,1.31,1.07,1.31s1.08-.49,1.08-1.31V62.65c0-.82-.35-1.31-1.08-1.31S187.34,61.83,187.34,62.65Z" transform="translate(-18.29 -20.36)"/><rect class="cls-13" x="268.69" y="39.29" width="2.56" height="6.41"/><rect class="cls-13" x="272.11" y="38.01" width="2.56" height="7.69"/><rect class="cls-13" x="275.53" y="37.1" width="2.56" height="8.6"/><rect class="cls-13" x="278.94" y="35.51" width="2.56" height="10.19"/><path class="cls-13" d="M331.51,65.88H316.13v-9.4h15.38ZM317,65h13.67V57.34H317Z" transform="translate(-18.29 -20.36)"/><rect class="cls-13" x="299.98" y="37.91" width="8.12" height="5.83"/><rect class="cls-13" x="312.69" y="39.72" width="1.93" height="2.21"/><path class="cls-13" d="M310.5,63.84a.64.64,0,0,1-.3-.08c-3.13-1.86-5.2-.14-5.28-.06a.58.58,0,0,1-.81-.06.57.57,0,0,1,.05-.81c.11-.1,2.76-2.36,6.63-.06a.58.58,0,0,1-.29,1.07Z" transform="translate(-18.29 -20.36)"/><path class="cls-13" d="M311.65,61.91a.6.6,0,0,1-.29-.08c-4.52-2.69-7.57-.09-7.6-.07a.57.57,0,1,1-.75-.86s3.7-3.17,8.94-.06a.58.58,0,0,1-.3,1.07Z" transform="translate(-18.29 -20.36)"/><path class="cls-13" d="M312.7,59.67a.51.51,0,0,1-.29-.08c-5.73-3.41-9.54-.2-9.7-.06a.57.57,0,0,1-.76-.86c.05,0,4.58-3.92,11.05-.07a.58.58,0,0,1-.3,1.07Z" transform="translate(-18.29 -20.36)"/><circle class="cls-13" cx="289.04" cy="44.44" r="1.44"/><path class="cls-13" d="M298.62,100.27c0-.08,0-.15,0-.21a1.71,1.71,0,0,0-.53-1,3.73,3.73,0,0,1-.58-.93l0-.1v-.09l0-.06v0l0-.07v-.29l0-.07V97.1l0-.07v-.42a.13.13,0,0,0,0-.06v-.11a.4.4,0,0,0-.1-.3.41.41,0,0,0-.28-.09h-.25a1.5,1.5,0,0,0-.64-.8c-.13-.07-.26-.12-.4-.18a16.17,16.17,0,0,1-1.46-.75l-1.73-1.07c-1-.63-2-1.27-2.43-1.47a2.36,2.36,0,0,1-.41-.24c-.73-.47-2.1-1.35-6.1-1.59-3.42-.2-8.49-.22-8.54-.22a33,33,0,0,0-3.65.11l-.59,0a17.64,17.64,0,0,0-3.59.58c-1.36.34-8.72,3.54-9,3.67s-7,2-7.73,2.52a2.29,2.29,0,0,0-.66.85,1.64,1.64,0,0,0-.25.81c-.23.17-.95.75-.88,1.14a4,4,0,0,1,.06.61v5a.11.11,0,0,0,.11.1H250l.5-.29h1.14a3.24,3.24,0,0,0,2.84,2.58h2.33a3.2,3.2,0,0,0,2.81-2.46l.38.17h5a3.13,3.13,0,0,0,2.74,2.28h2.33a3.29,3.29,0,0,0,2.89-2.73h6a3.27,3.27,0,0,0,2.86,2.73h1.81c1.06,0,2-1.15,2.3-2.73h2.65a3.27,3.27,0,0,0,2.86,2.73h1.81c1.06,0,2-1.15,2.3-2.73H298l.05,0a.81.81,0,0,0,.19-1.12A17.78,17.78,0,0,0,298.62,100.27Z" transform="translate(-18.29 -20.36)"/><path class="cls-11" d="M276.06,92.58A34.69,34.69,0,0,0,272.7,95a8.47,8.47,0,0,0,2.48.45h15.41a7.58,7.58,0,0,0,2.15-.72c.27-.33-3.86-2.92-5.34-3.41s-4.39-.46-7.32-.23A9,9,0,0,0,276.06,92.58Z" transform="translate(-18.29 -20.36)"/><path class="cls-11" d="M258.67,94.34h10.5a5.1,5.1,0,0,0,2.81-.71c1.27-.83,2-1.11,3.2-1.82s1.59-.94,1.59-.94-3.91-.33-6.16-.33a13.45,13.45,0,0,0-3.25.28Z" transform="translate(-18.29 -20.36)"/><path class="cls-13" d="M203.47,232.88c-4.21-.33-9.16,1.54-11.06,4.18s1.58,9,1.58,9,11.77-5.19,13.67-7.83S207.68,233.21,203.47,232.88Zm-4.81,6.7c-1.68-.14-2.43-1.1-1.68-2.16a5.46,5.46,0,0,1,4.43-1.67c1.68.13,2.43,1.1,1.67,2.15A5.43,5.43,0,0,1,198.66,239.58Z" transform="translate(-18.29 -20.36)"/><path class="cls-9" d="M194,218.26a9.91,9.91,0,0,0-9.92,9.91c0,5.47,9.92,17.44,9.92,17.44s9.91-12,9.91-17.44A9.91,9.91,0,0,0,194,218.26Zm0,13.87a4,4,0,1,1,4-4A4,4,0,0,1,194,232.13Z" transform="translate(-18.29 -20.36)"/><line class="cls-16" x1="249.49" y1="87.03" x2="248.53" y2="88.18"/><path class="cls-17" d="M264.9,110.83l-42.46,50.61a4.28,4.28,0,0,0-.07,5.43l40.57,50.82a4.3,4.3,0,0,1-2.06,6.77l-59.35,18.85" transform="translate(-18.29 -20.36)"/><line class="cls-16" x1="181.82" y1="223.41" x2="180.39" y2="223.86"/><polygon class="cls-13" points="233.97 130.66 233.97 141.75 211.74 138.75 233.97 149.54 233.97 158.96 288.53 158.96 288.53 130.66 233.97 130.66"/><path class="cls-11" d="M258,161.19c0-2.38,1.18-3.92,3.56-3.92s3.59,1.54,3.59,3.92v8.05c0,2.38-1.18,3.94-3.59,3.94s-3.56-1.56-3.56-3.94Zm1.71,8.16c0,1.4.61,2.25,1.85,2.25s1.85-.85,1.85-2.25V161.1c0-1.42-.58-2.27-1.85-2.27s-1.85.85-1.85,2.27Z" transform="translate(-18.29 -20.36)"/><path class="cls-11" d="M268.5,170.86V173h-1.67v-2.16Z" transform="translate(-18.29 -20.36)"/><path class="cls-11" d="M276.61,169.88V173h-1.69v-3.14h-5V168.3l4.84-10.87h1.89V168.3h1.25v1.58Zm-5.12-1.58h3.43v-7.62Z" transform="translate(-18.29 -20.36)"/><path class="cls-11" d="M285.3,166.25l-.91,1.54V173h-1.74V157.43h1.74V165l4.14-7.53h1.76l-3.94,7.11,4.07,8.48h-1.78Z" transform="translate(-18.29 -20.36)"/><path class="cls-11" d="M297.51,173h-1.67l-2.58-12.41V173h-1.52V157.43h2.43l2.56,12.45,2.47-12.45h2.43V173H300V160.48Z" transform="translate(-18.29 -20.36)"/></g><g id="Character"><path class="cls-18" d="M140.9,448.28l1.95,5.54s5.87,2.28,6.85,3.91,1,7.16,1,7.16H126.56s-.65-5.21-.65-8.14v-6.84Z" transform="translate(-18.29 -20.36)"/><path class="cls-18" d="M126.27,462.29h24.31c.09,1.42.09,2.6.09,2.6H126.56S126.42,463.78,126.27,462.29Z" transform="translate(-18.29 -20.36)"/><path class="cls-19" d="M138.25,441.11l-1.63-132.29-29,1.56-29-1.56L77,441.11s-2.93,2.6-2.93,3.91v3.26l.33,1.63s7.16.65,8.79,1,5.87-1,5.87-1,2-10.11,2-11.08S106.64,328.7,106.64,328.7l1-.14,1,.14s15.64,109.15,15.64,110.13,2,11.08,2,11.08,4.24,1.3,5.87,1,8.8-1,8.8-1l.32-1.63V445C141.18,443.71,138.25,441.11,138.25,441.11Z" transform="translate(-18.29 -20.36)"/><path class="cls-19" d="M149.3,234s9.26,4.27,12.35,6.41S164,250.66,165,255.17s2.13,7.36,1,8.55-2.85,3.32-2.85,3.32,1.18,11.4,1.66,20.19-4.28,11.87-8.08,14.25-8.07,2.85-15.91,2.37-13.29-4.27-14-5.94-7.36-19.94-4.51-30.39,12.35-32.77,16.86-35.15S149.3,234,149.3,234Z" transform="translate(-18.29 -20.36)"/><path class="cls-18" d="M77.59,297.68l-1.66,11.87s9.26,5.7,16.14,8.07,15,4.28,15,4.28l1.9-4,1.43,4.51s4.27-.47,11.16-3.8a180.33,180.33,0,0,0,16.86-10l-.24-12.11-4.51-79.08-18-7.83L98,211l-13.3,7.36Z" transform="translate(-18.29 -20.36)"/><path class="cls-18" d="M126.64,214.38l-11.06-4.8L98,211l-6.76,3.75c1.26,4.37,6,17.82,16.5,18.81C117.55,234.49,124.18,220.57,126.64,214.38Z" transform="translate(-18.29 -20.36)"/><path class="cls-19" d="M97.53,212.56s4.77,6.37,9.37,8.13,8.66-6.18,9.89-8.3,1.59-2.83,1.59-2.83L98,211S95.76,210.27,97.53,212.56Z" transform="translate(-18.29 -20.36)"/><path class="cls-9" d="M115.58,209.58s-.47,102.11.24,102.34,22.8-8.78,24-9.73a24.79,24.79,0,0,0,2.62-2.61l.47-38.24s7.36,4.75,9.5,5.23,8.79-.71,9.26-3.33-7.84-24-10-30.63a123.68,123.68,0,0,0-6.41-15c-1-2.14-10.45-3.32-16.15-5S115.58,209.58,115.58,209.58Z" transform="translate(-18.29 -20.36)"/><path class="cls-9" d="M115.82,230.47l2.61-3.79s6.41,5.46,7.13,3.56-4.18-17.24-5-20.19-5.22-2.85-5.46-1.66S115.82,230.47,115.82,230.47Z" transform="translate(-18.29 -20.36)"/><path class="cls-19" d="M129.12,212.66s-.48,34,1.19,42.75,12.58,32.77,12.58,32.77v-9s-6.41-23.5-7.36-30.39-.71-34.43-.71-34.43Z" transform="translate(-18.29 -20.36)"/><path class="cls-9" d="M100.11,212.82s.38,95.76.38,97.1-2.1.57-3.62-.19-16.79-5.92-21-7.63-4.77-.58-4.58-2.48.2-8.21.2-9.16,1.33-20.41,1.33-20.41-9,3.24-14.31,1.14-7.82-4.57-7.24-6.48S62,238,62.72,235.71s2.67-15.26,3.82-16.4,26.89-7.63,28.42-8.78a5.28,5.28,0,0,1,3.62-.95C99.15,209.58,99.73,209.2,100.11,212.82Z" transform="translate(-18.29 -20.36)"/><path class="cls-14" d="M78,243.81a14.42,14.42,0,0,1,.15,4.3c-.57,2.48-5.34,21.94-5.34,21.94" transform="translate(-18.29 -20.36)"/><path class="cls-14" d="M76.84,237.62s.25,1.06.54,2.52" transform="translate(-18.29 -20.36)"/><path class="cls-9" d="M97.44,208.25a9.39,9.39,0,0,0-1.91,3.81,87,87,0,0,1-4,13.74,48.47,48.47,0,0,0-1.9,4.57,4.58,4.58,0,0,0,3.43-.38c1.72-1,4.58-2.48,4.58-2.48L99.92,230l.19-17.17S100.3,206.72,97.44,208.25Z" transform="translate(-18.29 -20.36)"/><path class="cls-18" d="M92.1,193.37s-3.06-4-3.25-1.72-.76,5.15.77,7.06a9.25,9.25,0,0,0,2.67,2.48s2.48,6.48,4.19,8.2,2.67,5.53,7.44,7.44,7.25.76,9.73-1c1.2-.83,5.53-7.44,6.11-8.78s.76-6.1.76-6.1,3.24-4.58,3.43-7.06-.19-4-1-4h-1.72s2.29-9.34,2.1-12.4-5.72-9.15-9.92-12-13-1.91-17.55.95-9.34,9-8.2,11.45S92.1,193.37,92.1,193.37Z" transform="translate(-18.29 -20.36)"/><path class="cls-14" d="M104.66,204.83a4.38,4.38,0,0,0,2.85,1.66,2.84,2.84,0,0,0,3.09-1.66" transform="translate(-18.29 -20.36)"/><path class="cls-14" d="M103.71,208.39a6.59,6.59,0,0,0,4,1.19,5.92,5.92,0,0,0,4-1.43" transform="translate(-18.29 -20.36)"/><path class="cls-14" d="M92.1,193.37l-.39-.48Z" transform="translate(-18.29 -20.36)"/><path class="cls-19" d="M113.46,165.52c-4.2-2.86-13-1.91-17.55.95s-9.34,9-8.2,11.45,4.39,15.45,4.39,15.45a1.82,1.82,0,0,0,2.1-1c.57-1.33-.39-3.24.57-5,.77-1.39,3-1.28,4.37-1.6-1,.65-2.27,1.86-.75,2.56,2.48,1.14,4-.57,9.16-3.25s5.72-5.34,5.72-5.34,2.48,2.1,2.48,4.39-.19,5.53,1.15,5.91,2.28.58,2.28.58-.57,2.48.77,2.67c1,.14,1.34-2.19,1.46-3.44h-.13s2.29-9.34,2.1-12.4S117.66,168.38,113.46,165.52Z" transform="translate(-18.29 -20.36)"/><path class="cls-14" d="M110.6,197.37s2.48,2.1,6.3-.38" transform="translate(-18.29 -20.36)"/><path class="cls-14" d="M96.87,197.37s2.48,2.1,6.29-.38" transform="translate(-18.29 -20.36)"/><path class="cls-14" d="M96.29,194.51a10.74,10.74,0,0,1,6.11-.57" transform="translate(-18.29 -20.36)"/><path class="cls-14" d="M110.79,193.94a8.56,8.56,0,0,1,5.53.19" transform="translate(-18.29 -20.36)"/><path class="cls-9" d="M56.24,264s11.82-.77,13.54-.77,3,3.63,3.43,5.73.57,6.86.57,6.86-5.53,7.82-9.34,9.16-12.21-1.15-14.31-2.86-3.81-9.54-2.67-12.21,3.62-4.39,4.58-5.34" transform="translate(-18.29 -20.36)"/><polygon class="cls-19" points="67.66 220.2 73.53 244.47 84.61 242.03 79.88 218.41 67.66 220.2"/><path class="cls-18" d="M79.7,263l3.24-3.24a59.45,59.45,0,0,1,2.1-6.68,35.16,35.16,0,0,1,2.86-4.19l.76,2.48s7.25-3.25,8.4-3.25a1.65,1.65,0,0,1,1.52,1.72c0,.57-8,4.39-8,4.39l-.95,1.33s6.86-2.67,8-3.43a6.75,6.75,0,0,1,2.48-1s1,1.52.57,2.28-.76,1.72-.76,1.72a2.88,2.88,0,0,1-.16,1.49,6.31,6.31,0,0,1-2.29,3.07s-2.51,3.07-3.85,4.41-6.1,2.48-6.1,2.48l-9,5.72s-1.33-1.15-1.33-4.39A6.35,6.35,0,0,1,79.7,263Z" transform="translate(-18.29 -20.36)"/><path class="cls-14" d="M100.11,254.22s-7.63,3.81-9.54,5.15" transform="translate(-18.29 -20.36)"/><line class="cls-14" x1="72.57" y1="242.28" x2="79.19" y2="239.37"/><path class="cls-9" d="M81.22,261.08s-2.48,3.06-2.29,5.92,2.29,7.63,2.29,7.63a44.5,44.5,0,0,0-4.76,3.62c-1.34,1.34-4.39,2.1-5.54-.38s-3-8-2.29-11.25,2.29-4.2,3.06-4.39S79.89,261.28,81.22,261.08Z" transform="translate(-18.29 -20.36)"/><path class="cls-18" d="M142.42,249.71s-3.33-10-4.52-11.87-3.08-3.09-3.79-3.09-5-1.19-6.18-1.19-3.32.71-2.85,2.85l.48,2.14s-.48,3.8-.48,4.75,1.9,2.61,1.9,2.61a16.7,16.7,0,0,0,.71,3.8c.48.95,8.08,3.09,8.08,3.09l.71.95,1.42.71Z" transform="translate(-18.29 -20.36)"/><path class="cls-9" d="M146.45,254s6.42,3.57,8.31,4.28,4.28.95,6.89,5,1.66,10.69,0,14.25S154.53,282,151,282s-7.13-7.36-9-9.49-5-8.32-5-8.32Z" transform="translate(-18.29 -20.36)"/><path class="cls-9" d="M143.37,248.28s-4.75,2.62-6.89,5.47-4,5.46-4,6.88,4,6.89,4,6.89l12.35-12.82S146,250,143.37,248.28Z" transform="translate(-18.29 -20.36)"/><path class="cls-18" d="M74.06,448.28l-2,5.54s-5.86,2.28-6.84,3.91-1,7.16-1,7.16H88.4s.65-5.21.65-8.14v-6.84Z" transform="translate(-18.29 -20.36)"/><path class="cls-18" d="M88.69,462.29H64.38c-.09,1.42-.1,2.6-.1,2.6H88.4S88.54,463.78,88.69,462.29Z" transform="translate(-18.29 -20.36)"/></g><g id="Car"><path class="cls-19" d="M352.53,452.33H314.3s1.09-18.26,7.89-26.15,17.15-8.71,25.58-4.08,9,25.3,9,25.3h65.32s6-23.4,19.59-25,16.87,22,16.87,22l-2.34,7.92Z" transform="translate(-18.29 -20.36)"/><path class="cls-19" d="M445,446.63a22.55,22.55,0,0,0-2.91-11.33v-6.92h-7.76c-7.41,0-13.42,8.17-13.42,18.25s6,18.26,13.42,18.26h7.76V458A22.56,22.56,0,0,0,445,446.63Z" transform="translate(-18.29 -20.36)"/><ellipse class="cls-19" cx="424.39" cy="426.31" rx="10.76" ry="18.23"/><ellipse class="cls-18" cx="424.39" cy="426.31" rx="8.27" ry="14.01"/><path class="cls-19" d="M338.93,446.29a23.06,23.06,0,0,0-3-11.56v-7.05H325.26c-7.55,0-13.67,8.33-13.67,18.61s6.12,18.6,13.67,18.6H336v-7.05A23.05,23.05,0,0,0,338.93,446.29Z" transform="translate(-18.29 -20.36)"/><ellipse class="cls-19" cx="317.68" cy="425.93" rx="13.67" ry="18.61"/><ellipse class="cls-18" cx="317.68" cy="425.93" rx="10.51" ry="14.3"/><path class="cls-19" d="M398.44,428.44l-.56,0v-.08h-7.76c-7.41,0-13.42,8.17-13.42,18.25s6,18.26,13.42,18.26h7.76v0a5.24,5.24,0,0,0,.56,0c5.94,0,10.76-8.16,10.76-18.22S404.38,428.44,398.44,428.44Z" transform="translate(-18.29 -20.36)"/><path class="cls-19" d="M275,427.68H264.25c-7.55,0-13.67,8.33-13.67,18.61s6.12,18.6,13.67,18.6H275c7.55,0,13.68-8.33,13.68-18.6S282.51,427.68,275,427.68Z" transform="translate(-18.29 -20.36)"/><path class="cls-20" d="M466.6,432.74c-.5-2.53-.25-2.78-2.53-5.57a14.46,14.46,0,0,1-2.78-4.55,66.42,66.42,0,0,0,1.26-7.6c0-1.77-2.78-1.27-2.78-1.27S459,411,457,410a86.78,86.78,0,0,1-8.6-4.31c-4.81-2.78-15.79-10.12-19.08-11.64s-7.58-7-29.78-8.36c-15.86-.95-39.25-1-39.25-1a157.6,157.6,0,0,0-16.7.51c-4.39.41-8.3.12-19.17,2.84-6.29,1.57-41.44,16.9-41.44,16.9s-31.93,8.92-35.39,11.51-4,7.48-4,7.48-4.32,3.16-4,4.89a19.78,19.78,0,0,1,.28,2.87v22.82h3.57l2.45-1.4h40.86l3.14,1.4h30.35c-.09-1.15-.15-4.42-.15-5.61,0-14.33,7.31-25.95,16.33-25.95s16.33,11.62,16.33,25.95c0,1.19-.06,2.36-.15,3.51h76.34c0-.58,0-1.15,0-1.74,0-13.35,6.14-24.18,13.7-24.18s13.69,10.83,13.69,24.18c0,.59,0,1.16,0,1.74h8c2.43-1.42.61-4.65.61-4.65S467.11,435.27,466.6,432.74Z" transform="translate(-18.29 -20.36)"/><path class="cls-21" d="M363.31,397.27s-15.69,10.41-15.44,11.17,9.11,2,11.39,2h70.89s8.61-1.77,9.87-3.29-17.72-13.42-24.56-15.69-20.16-2.12-33.67-1C371.7,391.25,363.31,397.27,363.31,397.27Z" transform="translate(-18.29 -20.36)"/><path class="cls-14" d="M399.9,418.56h-7.09a1.4,1.4,0,0,1-1.4-1.39h0a1.4,1.4,0,0,1,1.4-1.39h7.09a1.39,1.39,0,0,1,1.39,1.39h0A1.39,1.39,0,0,1,399.9,418.56Z" transform="translate(-18.29 -20.36)"/><path class="cls-14" d="M431.41,418.56h-7.08a1.4,1.4,0,0,1-1.4-1.39h0a1.4,1.4,0,0,1,1.4-1.39h7.08a1.4,1.4,0,0,1,1.4,1.39h0A1.4,1.4,0,0,1,431.41,418.56Z" transform="translate(-18.29 -20.36)"/><polyline class="cls-14" points="382.24 390.87 385.28 395.42 385.02 422.76 386.54 425.8 385.02 429.35 387.05 431.63"/><path class="cls-14" d="M435,410l2,2.28-3.79,17.21-8.11,19.24s-5.06.51-5.82.51l-58.48.5s-.76-1.26-1.52-2.78S356,424.39,356,419.58a20.18,20.18,0,0,0-2.28-8.86" transform="translate(-18.29 -20.36)"/><path class="cls-21" d="M283.36,405.4h48.31s7.09.51,12.91-3.29,9.37-5.09,14.68-8.38,7.34-4.3,7.34-4.3-18-1.52-28.35-1.52-14.94,1.26-14.94,1.26Z" transform="translate(-18.29 -20.36)"/><path class="cls-14" d="M321.62,415.08s6-.82,7-1.33,6.07-6.32,6.07-6.32" transform="translate(-18.29 -20.36)"/><path class="cls-22" d="M297.63,418.37l24-3.29s-17.09,10.35-19.6,10.35-21.17.62-21.17.62l4.71-4.07,5.48-2.83Z" transform="translate(-18.29 -20.36)"/><path class="cls-18" d="M318.36,417l-9.68,1.21-7,4.66-18.59,1.21-2.26,1.95s18.66-.62,21.17-.62C303.83,425.43,313.27,420,318.36,417Z" transform="translate(-18.29 -20.36)"/><path class="cls-22" d="M247.61,421.51l-1.25,4.07-2.81-1.73a7.12,7.12,0,0,1,2-4.85Z" transform="translate(-18.29 -20.36)"/><path class="cls-18" d="M246.68,424.53l-3-1.85a6.28,6.28,0,0,0-.12,1.17l2.81,1.73Z" transform="translate(-18.29 -20.36)"/><path class="cls-19" d="M245.57,419s2,3,8,4.55l1.25,5.17h4.39l4.08-4.55s29.95-3.29,30.73-3.6,3.61-2.2,3.61-2.2-33.09,2.35-34,2.35-9.4-.47-9.4-.47l-7.69-2.66Z" transform="translate(-18.29 -20.36)"/><path class="cls-19" d="M303,446.24c0,1.3-1.37,2.35-3.06,2.35s-3.06-1-3.06-2.35,1.37-2.35,3.06-2.35S303,444.94,303,446.24Z" transform="translate(-18.29 -20.36)"/><path class="cls-19" d="M462.55,415c0-1.77-1.64-1.18-2.78-1.27L454.71,415l-1,3.54,7.6,4.06A66.42,66.42,0,0,0,462.55,415Z" transform="translate(-18.29 -20.36)"/><path class="cls-14" d="M445.59,411.81c4-.11,7.44-.15,10.25-.1" transform="translate(-18.29 -20.36)"/><path class="cls-14" d="M368.74,416.63c22.13-1.75,51.52-3.88,71.71-4.65" transform="translate(-18.29 -20.36)"/><path class="cls-14" d="M343.57,418.68c4.71-.4,12.11-1,21-1.72" transform="translate(-18.29 -20.36)"/><path class="cls-14" d="M338,419.16l3.32-.29" transform="translate(-18.29 -20.36)"/><polygon class="cls-19" points="227.13 408.83 255.19 408.83 261.78 412.44 270.56 426.71 261.94 429.22 223.68 429.22 221.95 424.83 222.89 411.34 227.13 408.83"/><rect class="cls-11" x="227.28" y="412.28" width="21.32" height="8.94"/><line class="cls-23" x1="261.03" y1="413.74" x2="251.51" y2="413.74"/><line class="cls-23" x1="263.53" y1="417.25" x2="252.01" y2="417.25"/><line class="cls-23" x1="266.04" y1="420.75" x2="252.01" y2="420.75"/><line class="cls-23" x1="268.54" y1="424.26" x2="238.48" y2="424.26"/><line class="cls-23" x1="268.54" y1="427.41" x2="223.85" y2="427.41"/><path class="cls-20" d="M375.43,400.94H363.75c-2.91,1.55-5.23,3.13-5.12,4.37.28,3.14,1.4,4.36,2.79,4.36h11.65s5.12-2.91,4.65-5.82A5,5,0,0,0,375.43,400.94Z" transform="translate(-18.29 -20.36)"/><line class="cls-18" x1="340.34" y1="384.95" x2="355.36" y2="384.95"/><path class="cls-19" d="M361.42,409.67l.7,3.79,1,1,3.17-.65s-1.39.35-1-4.19Z" transform="translate(-18.29 -20.36)"/><line class="cls-18" x1="266.3" y1="413.2" x2="300.42" y2="413.2"/><polygon class="cls-19" points="271.03 429.37 284.67 429.37 286.95 427.76 283.07 412.62 271.97 407.42 282.5 414.06 285.77 426.08 282.71 428.43 271.03 429.37"/></g><g id="Floor"><line class="cls-14" x1="1.48" y1="444.54" x2="458.36" y2="444.54"/></g></svg>